<svg xmlns="http://www.w3.org/2000/svg" width="435" height="355.684" viewBox="0 0 435 355.684">
  <g id="Grupo_29320" data-name="Grupo 29320" transform="translate(-1032 343)">
    <g id="Grupo_29305" data-name="Grupo 29305" transform="translate(210.334 -485.2)">
      <g id="Grupo_29212" data-name="Grupo 29212" transform="translate(821.666 233.951)">
        <g id="Grupo_29207" data-name="Grupo 29207" transform="translate(74.328 2.121)" opacity="0.4">
          <g id="Grupo_29206" data-name="Grupo 29206">
            <path id="Trazado_59214" data-name="Trazado 59214" d="M946.863,424.589c-19.821-3.623-38.49-13.743-53.76-29.5-19.721-20.343-37.4-53.525-23.813-102.833,25.734-93.424,142.524-108.932,195.7-87.372,84.5,34.26,123.227,172.92,7.084,217.846C1043.2,433.9,978.317,430.338,946.863,424.589Z" transform="translate(-864.505 -196.303)" fill="#c5dbee"/>
          </g>
        </g>
        <g id="Grupo_29209" data-name="Grupo 29209" transform="translate(340.875)" opacity="0.4">
          <g id="Grupo_29208" data-name="Grupo 29208">
            <path id="Trazado_59215" data-name="Trazado 59215" d="M1091.3,209.165c-18.4-17.349-49.733-20.132-65.809-.066-8.123,10.141-8.616,24.719-5.8,32.706,8.748,24.846,50.79,63.522,81.624,35.574C1121.249,259.3,1111.573,228.292,1091.3,209.165Z" transform="translate(-1018.13 -195.081)" fill="#c5dbee"/>
          </g>
        </g>
        <g id="Grupo_29211" data-name="Grupo 29211" transform="translate(0 113.824)" opacity="0.4">
          <g id="Grupo_29210" data-name="Grupo 29210">
            <path id="Trazado_59216" data-name="Trazado 59216" d="M884.826,289.255a40.6,40.6,0,0,0-49.454-27.1c-7.438,2.068-11.788,12.812-13.036,20.017-3.883,22.415,8.866,69.862,44.374,64.306C895.415,341.989,892.045,312.222,884.826,289.255Z" transform="translate(-821.666 -260.684)" fill="#c5dbee"/>
          </g>
        </g>
      </g>
      <g id="Grupo_29213" data-name="Grupo 29213" transform="translate(998.98 142.2)">
        <path id="Trazado_59217" data-name="Trazado 59217" d="M964.609,250.821a40.946,40.946,0,0,1-40.748-41.043c0-27.655,36.773-65.038,38.339-66.614a3.492,3.492,0,0,1,4.818,0c1.565,1.575,38.339,38.959,38.339,66.614A40.946,40.946,0,0,1,964.609,250.821Z" transform="translate(-923.861 -142.2)" fill="#bf2e43"/>
        <path id="Trazado_59218" data-name="Trazado 59218" d="M958.069,213.547H955.8a7.932,7.932,0,0,1-7.924-7.922v-5.66h-5.66a7.932,7.932,0,0,1-7.922-7.924v-2.264a7.931,7.931,0,0,1,7.922-7.922h5.66v-5.66a7.933,7.933,0,0,1,7.924-7.924h2.264a7.932,7.932,0,0,1,7.922,7.924v5.66h5.66a7.932,7.932,0,0,1,7.924,7.922v2.264a7.933,7.933,0,0,1-7.924,7.924h-5.66v5.66A7.931,7.931,0,0,1,958.069,213.547Z" transform="translate(-916.189 -123.037)" fill="#efe6ca"/>
        <path id="Trazado_59219" data-name="Trazado 59219" d="M964.609,142.2a3.373,3.373,0,0,0-2.408.965c-1.567,1.575-38.339,38.959-38.339,66.614a40.946,40.946,0,0,0,40.748,41.043v-18.11h-1.131a7.932,7.932,0,0,1-7.924-7.922v-5.66h-5.66a7.932,7.932,0,0,1-7.922-7.924V208.94a7.93,7.93,0,0,1,7.922-7.922h5.66v-5.66a7.933,7.933,0,0,1,7.924-7.924h1.131Z" transform="translate(-923.861 -142.2)" fill="#e33e4e"/>
        <path id="Trazado_59220" data-name="Trazado 59220" d="M956.936,168.271H955.8a7.933,7.933,0,0,0-7.924,7.924v5.66h-5.66a7.931,7.931,0,0,0-7.922,7.922v2.264a7.932,7.932,0,0,0,7.922,7.924h5.66v5.66a7.932,7.932,0,0,0,7.924,7.922h1.131Z" transform="translate(-916.189 -123.037)" fill="#fff"/>
      </g>
      <g id="Grupo_29214" data-name="Grupo 29214" transform="translate(847.517 230.177)">
        <circle id="Elipse_2759" data-name="Elipse 2759" cx="2.609" cy="2.609" r="2.609" transform="translate(91.601 5.131) rotate(-79.481)" fill="#badfff"/>
        <circle id="Elipse_2760" data-name="Elipse 2760" cx="7.12" cy="7.12" r="7.12" transform="translate(357.951 118.22)" fill="#badfff"/>
        <path id="Trazado_59221" data-name="Trazado 59221" d="M1069.022,288.377a5.9,5.9,0,1,1-5.9-5.9A5.9,5.9,0,0,1,1069.022,288.377Z" transform="translate(-674.376 -127.07)" fill="none" stroke="#badfff" stroke-miterlimit="10" stroke-width="1"/>
        <circle id="Elipse_2761" data-name="Elipse 2761" cx="1.934" cy="1.934" r="1.934" transform="translate(350.85 196.748)" fill="none" stroke="#badfff" stroke-miterlimit="10" stroke-width="1"/>
        <path id="Trazado_59222" data-name="Trazado 59222" d="M839.7,244.936a1.568,1.568,0,1,1-1.568-1.567A1.569,1.569,0,0,1,839.7,244.936Z" transform="translate(-836.565 -155.813)" fill="#badfff"/>
        <path id="Trazado_59223" data-name="Trazado 59223" d="M849.67,222.864a5.413,5.413,0,1,1-5.413-5.413A5.412,5.412,0,0,1,849.67,222.864Z" transform="translate(-834.891 -174.864)" fill="none" stroke="#badfff" stroke-miterlimit="10" stroke-width="1"/>
      </g>
      <g id="Grupo_29215" data-name="Grupo 29215" transform="translate(866.515 494.262)">
        <rect id="Rectángulo_5434" data-name="Rectángulo 5434" width="47.502" height="3.622" rx="1.044" fill="#b0bcc1"/>
        <rect id="Rectángulo_5435" data-name="Rectángulo 5435" width="47.502" height="3.622" rx="0.819" transform="translate(295.97)" fill="#b0bcc1"/>
        <rect id="Rectángulo_5436" data-name="Rectángulo 5436" width="47.502" height="3.622" rx="1.044" transform="translate(62.149)" fill="#b0bcc1"/>
        <rect id="Rectángulo_5437" data-name="Rectángulo 5437" width="75.077" height="3.622" rx="1.044" transform="translate(118.804)" fill="#b0bcc1"/>
        <rect id="Rectángulo_5438" data-name="Rectángulo 5438" width="72.644" height="3.622" rx="1.044" transform="translate(202.362)" fill="#b0bcc1"/>
      </g>
      <g id="Grupo_29231" data-name="Grupo 29231" transform="translate(881.992 229.737)">
        <path id="Trazado_59224" data-name="Trazado 59224" d="M859.874,314.416S872.061,346.87,872.8,357.1c0,0,3.052,2.431,8.262.278,0,0,.144-31.017-4.955-40.6S859.874,314.416,859.874,314.416Z" transform="translate(-853.907 -105.071)" fill="#e89e8e"/>
        <g id="Grupo_29217" data-name="Grupo 29217" transform="translate(2.916 250.639)">
          <path id="Trazado_59225" data-name="Trazado 59225" d="M858.5,352.77h25.647a11.764,11.764,0,0,0-.571-7.485s1.129-4.428.689-5.889-5.693-3.217-7.121-1.713a4.072,4.072,0,0,0-.973,3.161c-.718-4.062-2.564-4.4-4.355-2.807-1.865,1.659.4.836.042,3.477a2.369,2.369,0,0,1-.144.541,2.938,2.938,0,0,1-.7,1.025,5.339,5.339,0,0,1-1.017.76,6.763,6.763,0,0,1-.639.344,9.736,9.736,0,0,1-1.362.5,12.581,12.581,0,0,1-2.436.458c-3.514.326-4.917.578-6.536,2.394s-.592,3.262-.592,3.262Z" transform="translate(-858.116 -337.109)" fill="#d0d7db"/>
          <g id="Grupo_29216" data-name="Grupo 29216" transform="translate(9.883 4.634)">
            <path id="Trazado_59226" data-name="Trazado 59226" d="M866.25,340.093a2.938,2.938,0,0,1-.7,1.025,3.03,3.03,0,0,1,3.553.732l.654-.833A2.667,2.667,0,0,0,866.25,340.093Z" transform="translate(-862.534 -339.779)" fill="#b0bcc1"/>
            <path id="Trazado_59227" data-name="Trazado 59227" d="M867.2,343.155l.894-.559a2.787,2.787,0,0,0-2.117-2.046,5.286,5.286,0,0,1-1.017.76A3,3,0,0,1,867.2,343.155Z" transform="translate(-862.965 -339.212)" fill="#b0bcc1"/>
            <path id="Trazado_59228" data-name="Trazado 59228" d="M865.573,343.663l.942-.472a2.908,2.908,0,0,0-1.341-2,9.736,9.736,0,0,1-1.362.5A3.062,3.062,0,0,1,865.573,343.663Z" transform="translate(-863.812 -338.744)" fill="#b0bcc1"/>
          </g>
        </g>
        <path id="Trazado_59229" data-name="Trazado 59229" d="M890.73,349.1a5.511,5.511,0,0,0,1.928-2.2,22.024,22.024,0,0,0,0-6.2c-.5-3.179.883-5.774,5.384-6.749,4.374-.947,6.97,1.161,5.958,9.954v0c.666,3.654.8,7.825-.715,11.34H889.821S887.7,350.7,890.73,349.1Z" transform="translate(-832.426 -88.946)" fill="#d0d7db"/>
        <path id="Trazado_59230" data-name="Trazado 59230" d="M883.231,315.595a40.85,40.85,0,0,0,4.95,17.772c5.04,9.163,11.271,21.74,11.271,21.74s4.152,4.05,6.789-2.658c0,0-1.862-23.357-6.137-31.906S883.231,315.595,883.231,315.595Z" transform="translate(-836.738 -102.837)" fill="#e89e8e"/>
        <g id="Grupo_29218" data-name="Grupo 29218" transform="translate(60.116 249.052)">
          <path id="Trazado_59231" data-name="Trazado 59231" d="M898.962,340.244s1.246-2.542.135-3.633-2.417.933-4.313.482-2.335-1.8-2.828.038S892.063,344.743,898.962,340.244Z" transform="translate(-890.538 -336.194)" fill="#d0d7db"/>
          <path id="Trazado_59232" data-name="Trazado 59232" d="M891.824,338.463s5.094,1.8,7.735,0l-.671,2.2s-5.535.587-6.3-.808Z" transform="translate(-890.538 -334.526)" fill="#b0bcc1"/>
          <path id="Trazado_59233" data-name="Trazado 59233" d="M892.343,340.118s4.664-.647,6.913.51v1.093s-6.08-1.419-8.044,0Z" transform="translate(-890.988 -333.441)" fill="#b0bcc1"/>
          <path id="Trazado_59234" data-name="Trazado 59234" d="M899.574,343.279a4.249,4.249,0,0,0-3.741-2.361,7.4,7.4,0,0,0-4.75,1.4A9.488,9.488,0,0,1,899.574,343.279Z" transform="translate(-891.083 -332.73)" fill="#b0bcc1"/>
        </g>
        <g id="Grupo_29225" data-name="Grupo 29225" transform="translate(0 135.554)">
          <g id="Grupo_29219" data-name="Grupo 29219">
            <path id="Trazado_59235" data-name="Trazado 59235" d="M923.741,345.669a13.61,13.61,0,0,1-1.516,2.538c-.121.17-.259.34-.406.519-2.8,3.468-8.972,8.1-20.238,3.533,0,0-.285-.647-.682-1.669-.064-.179-.137-.364-.219-.567a41.76,41.76,0,0,1-2.025-6.768c-2.943-16.339-4.037-28.181-5.594-34.9-4.327,10.44-14.038,30.695-14.467,31.562-.543,1.077,1.621,8.047,1.621,8.047-8.1,2.642-19.72-.729-19.72-.729s-3.517-10.294-4.051-17.637c-.413-5.625,13.754-37.137,20.408-51.581.17-.38.342-.737.494-1.095,1.751-3.784,2.87-6.142,2.87-6.142l11.347,3.833,27.566,12.4s.486.56.939,6.241c.009.146.033.309.042.455.259,3.38.5,8.446.647,16.032v.47q.049,2.48.081,5.325v.455c.033,4.36.042,9.369.017,15.14-.009.154-.009.307-.009.47-.009,1.791-.033,3.647-.049,5.583-.017,1.768,1.378,5.106,2.252,7.029.075.161.148.316.2.453C923.545,345.28,923.741,345.669,923.741,345.669Z" transform="translate(-856.435 -270.779)" fill="#172e60"/>
          </g>
          <g id="Grupo_29220" data-name="Grupo 29220" transform="translate(59.46 8.429)">
            <path id="Trazado_59236" data-name="Trazado 59236" d="M897.034,344.636c-.121.17-.259.34-.406.519-1.256-2.141-3.208-5.788-3.663-8.285-.656-3.581-.973-17.668-.009-32.492a114.3,114.3,0,0,0-2.252-28.611l.592-.13a114.726,114.726,0,0,1,2.269,28.781c-.965,14.776-.658,28.8,0,32.34C893.988,339.067,895.8,342.5,897.034,344.636Z" transform="translate(-890.705 -275.637)" fill="#263c45"/>
          </g>
          <g id="Grupo_29221" data-name="Grupo 29221" transform="translate(50.44 10.296)">
            <path id="Trazado_59237" data-name="Trazado 59237" d="M896.583,287.356c-8.809-3.173-11.056-10.4-11.077-10.469l.581-.173c.021.069,2.193,7.006,10.7,10.072Z" transform="translate(-885.506 -276.713)" fill="#263c45"/>
          </g>
          <g id="Grupo_29222" data-name="Grupo 29222" transform="translate(20.416 4.287)">
            <path id="Trazado_59238" data-name="Trazado 59238" d="M876.8,273.76a3.029,3.029,0,0,1-1.3.2c-1.709.106-4.822.291-7.3,2.237.17-.38.342-.737.494-1.095a14.337,14.337,0,0,1,6.769-1.751,5.667,5.667,0,0,0,1-.1Z" transform="translate(-868.202 -273.25)" fill="#263c45"/>
          </g>
          <g id="Grupo_29223" data-name="Grupo 29223" transform="translate(33.93 7.601)">
            <path id="Trazado_59239" data-name="Trazado 59239" d="M878.414,305.27c-6.4-12.768,1.886-29.938,1.971-30.11l.545.269c-.083.168-8.233,17.073-1.971,29.569Z" transform="translate(-875.99 -275.16)" fill="#263c45"/>
          </g>
          <g id="Grupo_29224" data-name="Grupo 29224" transform="translate(34.12 8.28)">
            <path id="Trazado_59240" data-name="Trazado 59240" d="M877.077,292.52a3.4,3.4,0,0,1-.977-.134l.186-.579a2.934,2.934,0,0,0,2.271-.316c.93-.6,1.508-1.813,1.718-3.6.632-5.394,4.761-12.057,4.936-12.338l.515.323c-.042.068-4.232,6.829-4.848,12.086-.233,1.983-.906,3.343-2,4.046A3.312,3.312,0,0,1,877.077,292.52Z" transform="translate(-876.1 -275.551)" fill="#263c45"/>
          </g>
        </g>
        <path id="Trazado_59241" data-name="Trazado 59241" d="M859.846,205.2s1-2.3,5.23-2.306c3.26,0,4.508,1.8,4.508,1.8,1.948,5.7,4.044,27.521,4.794,28.3.382.394,24.709,18.966,24.709,18.966-13.119.245-13.629,22.049-13.629,22.049-.425-5.314-18.723-18.7-23.371-27.45C857.759,238.414,855.663,218.475,859.846,205.2Z" transform="translate(-855.597 -185.122)" fill="#ffda64"/>
        <g id="Grupo_29226" data-name="Grupo 29226" transform="translate(21.05 64.95)">
          <path id="Trazado_59242" data-name="Trazado 59242" d="M930.458,263.118c-1.993,22-9.937,43.253-12.694,52.112-.592,1.914-.947,2.983-.947,2.983s-43.144-5.592-48.25-17.248c0,0,.08-.316.219-.916,1.289-5.3,7.658-26.758,8.389-44.322.81-19.542,7.358-26.456,11.33-25.564,0,0,8.925,7.051,14.639,7.027s19.354-6.217,19.354-6.217S932.88,236.37,930.458,263.118Z" transform="translate(-868.567 -230.086)" fill="#ffe278"/>
        </g>
        <circle id="Elipse_2762" data-name="Elipse 2762" cx="2.584" cy="2.584" r="2.584" transform="translate(53.102 58.852)" fill="#d14252"/>
        <path id="Trazado_59243" data-name="Trazado 59243" d="M935.885,206.092s-1-2.306-5.231-2.306c-3.258,0-4.506,1.8-4.506,1.8-1.949,5.7-4.044,27.521-4.8,28.3-.38.392-24.707,18.964-24.707,18.964-.585,15.239,13.629,22.049,13.629,22.049.425-5.313,18.723-18.7,23.371-27.448C937.973,239.3,940.068,219.365,935.885,206.092Z" transform="translate(-826.891 -184.468)" fill="#ffda64"/>
        <path id="Trazado_59244" data-name="Trazado 59244" d="M886.615,234.028s-2.361.944-2.847,1.973,1.331,5.25,4.811,5.571,10.1-3.7,9.833-5S893.191,233.6,886.615,234.028Z" transform="translate(-836.401 -162.29)" fill="#dea36b"/>
        <path id="Trazado_59245" data-name="Trazado 59245" d="M885.47,231.174s1.3,5.36-.684,7.5c0,0,3.238,5.226,10.565-.05,0,0-1.395-3.522,0-5.809Z" transform="translate(-835.596 -164.337)" fill="#fd847f"/>
        <g id="Grupo_29227" data-name="Grupo 29227" transform="translate(40.696 38.48)">
          <path id="Trazado_59246" data-name="Trazado 59246" d="M909.747,228.611a2.635,2.635,0,0,0-2.129-2.585,2.631,2.631,0,0,0-1.8-4.489,96.162,96.162,0,0,1-6.479-6.106,2.624,2.624,0,0,1-4.685-.6,2.615,2.615,0,0,1-4.1.6,2.614,2.614,0,0,1-4.013,2.033,2.612,2.612,0,0,0-2.559,3.246c-.026,0-.05-.007-.078-.007a2.631,2.631,0,0,0-1.895,4.461,2.629,2.629,0,0,0-.4,5.047,2.621,2.621,0,0,0,1.2,4.737,5.4,5.4,0,0,0,2.382,3.31c1.2,1.1,10.92,2.205,15.569,1.811a2.632,2.632,0,0,0,4.529-1.829l0-.028a2.586,2.586,0,0,0,2.263-3.3,2.616,2.616,0,0,0,1.006-4.1A2.632,2.632,0,0,0,909.747,228.611Z" transform="translate(-879.89 -214.83)" fill="#d14252"/>
          <path id="Trazado_59247" data-name="Trazado 59247" d="M893.762,226.1s2.754-2.747,3.092.465c.394,3.72-2.986,5.219-3.647,4.036S893.762,226.1,893.762,226.1Z" transform="translate(-870.246 -207.352)" fill="#e89e8e"/>
          <path id="Trazado_59248" data-name="Trazado 59248" d="M883.656,226.21s-2.754-2.748-3.092.463c-.392,3.722,2.986,5.221,3.647,4.037S883.656,226.21,883.656,226.21Z" transform="translate(-879.418 -207.27)" fill="#e89e8e"/>
          <path id="Trazado_59249" data-name="Trazado 59249" d="M892.357,244.381c6.109,0,9.557-3.991,9.557-15.957,0-6.173-3.142-9.959-9.984-9.959s-9.725,3.786-9.725,9.959C882.2,241.283,886.046,244.381,892.357,244.381Z" transform="translate(-878.188 -212.158)" fill="#e89e8e"/>
          <path id="Trazado_59250" data-name="Trazado 59250" d="M899.481,222.027s-4.249-.295-13.582-.965c0,0-3.415,3.555-3.172,12.307,0,0-5.465-15.766,10.488-15.766s8.767,15.416,8.767,15.416S902.448,224.98,899.481,222.027Z" transform="translate(-878.468 -212.792)" fill="#d14252"/>
        </g>
        <path id="Trazado_59251" data-name="Trazado 59251" d="M864.053,202.572s-4.529.21-4.511,1.659.017,3.2,3.8,3,3.828-1.685,3.873-3.1S865.289,202.454,864.053,202.572Z" transform="translate(-854.151 -185.38)" fill="#ecb67b"/>
        <path id="Trazado_59252" data-name="Trazado 59252" d="M918.857,203.041s-4.534-.029-4.591,1.419-.151,3.2,3.637,3.194,3.909-1.482,4.03-2.9S920.1,202.989,918.857,203.041Z" transform="translate(-813.938 -185.019)" fill="#ecb67b"/>
        <g id="Grupo_29228" data-name="Grupo 29228" transform="translate(1.833)">
          <path id="Trazado_59253" data-name="Trazado 59253" d="M858.44,200.8a19.261,19.261,0,0,1,1.719,3.607c.45,2.412.711,3.744,1.556,4.851a4.359,4.359,0,0,1,.4,3.059s3.276,1.683,6.029-.4a6.994,6.994,0,0,1,0-2.483c.567-1.1,2.386-1.683,3.007-3.9a17.4,17.4,0,0,1,2.483-4.7s-.531-1.15-1.5-.449-1.6,2.485-2.132,2.663a1.366,1.366,0,0,1-.325.073.067.067,0,0,0-.026.009,1.315,1.315,0,0,1-1.072-.279.158.158,0,0,1-.063-.054c-.89-1.034-1.1-4.076-1.062-5.436.054-1.889-.017-4.5-1.169-4.058s-.1,1.494-.991,5.661l-.432.054c-.08.3-.873-2.53-1.062-5.184-.134-1.825-1.331-1.15-1.593-.576s.135,2.394.217,3.716c.062.874.135,1.782.18,2.323l-.5.278c-1.818-3.166-1.2-4.48-2.259-4.544s-.675,2.61-.107,3.626a10.065,10.065,0,0,1,.666,2.259c-1.863-2.15-1.655-3.276-2.511-3.14C857,197.926,857.793,200.059,858.44,200.8Z" transform="translate(-857.491 -192.652)" fill="#e89e8e"/>
          <path id="Trazado_59254" data-name="Trazado 59254" d="M862.676,201.432c.63-1.737,2.88-2.528,3.16-2.618a1.315,1.315,0,0,1-1.072-.279A3.163,3.163,0,0,0,862.676,201.432Z" transform="translate(-853.681 -188.329)" fill="#fd847f"/>
        </g>
        <g id="Grupo_29229" data-name="Grupo 29229" transform="translate(95.426 0.597)">
          <path id="Trazado_59255" data-name="Trazado 59255" d="M926.624,201.142a19.26,19.26,0,0,0-1.719,3.609c-.449,2.412-.71,3.744-1.556,4.849a4.373,4.373,0,0,0-.4,3.061s-3.276,1.683-6.029-.4a7.006,7.006,0,0,0,0-2.485c-.567-1.1-2.386-1.683-3.005-3.9a17.365,17.365,0,0,0-2.484-4.7s.531-1.152,1.5-.449,1.6,2.483,2.132,2.663a1.379,1.379,0,0,0,.325.071.069.069,0,0,1,.028.01,1.311,1.311,0,0,0,1.07-.279.173.173,0,0,0,.063-.054c.892-1.036,1.1-4.077,1.062-5.436-.054-1.889.019-4.5,1.169-4.058s.1,1.494.991,5.66l.432.054c.082.3.873-2.528,1.062-5.183.135-1.827,1.332-1.152,1.593-.576s-.135,2.394-.217,3.716c-.062.873-.134,1.782-.179,2.322l.5.279c1.818-3.168,1.2-4.482,2.259-4.544s.675,2.61.108,3.626a10.03,10.03,0,0,0-.666,2.259c1.864-2.151,1.657-3.276,2.511-3.14C928.064,198.272,927.272,200.4,926.624,201.142Z" transform="translate(-911.434 -192.996)" fill="#e89e8e"/>
          <path id="Trazado_59256" data-name="Trazado 59256" d="M916.89,201.777c-.63-1.737-2.88-2.528-3.158-2.618a1.311,1.311,0,0,0,1.07-.279A3.158,3.158,0,0,1,916.89,201.777Z" transform="translate(-909.745 -188.672)" fill="#fd847f"/>
        </g>
        <g id="Grupo_29230" data-name="Grupo 29230" transform="translate(21.05 134.912)">
          <path id="Trazado_59257" data-name="Trazado 59257" d="M917.764,285.591c-.592,1.914-.947,2.983-.947,2.983s-43.144-5.592-48.25-17.248c0,0,.08-.316.219-.916C871.529,274.957,904.6,286.016,917.764,285.591Z" transform="translate(-868.567 -270.409)" fill="#ffda64"/>
        </g>
      </g>
      <g id="Grupo_29261" data-name="Grupo 29261" transform="translate(1051.489 226.379)">
        <g id="Grupo_29232" data-name="Grupo 29232" transform="translate(57.994 251.319)">
          <path id="Trazado_59258" data-name="Trazado 59258" d="M987.989,353.9h20.985a42.771,42.771,0,0,0-.873-16.693l-9.593-1.647c-.873,5.273-1.926,7.351-3.383,8.424h-.009a14.687,14.687,0,0,1-3.914,1.574,5.025,5.025,0,0,0-3.239,3.016A8.918,8.918,0,0,0,987.989,353.9Z" transform="translate(-987.55 -335.565)" fill="#263c45"/>
          <path id="Trazado_59259" data-name="Trazado 59259" d="M987.788,345.009c5.174.647,16.538,1.754,15.846-1.242-.576-2.5-5.372-3.177-8.684-3.347h-.009a14.686,14.686,0,0,1-3.914,1.574A5.025,5.025,0,0,0,987.788,345.009Z" transform="translate(-987.374 -331.996)" fill="#375360"/>
        </g>
        <g id="Grupo_29233" data-name="Grupo 29233" transform="translate(128.235 251.319)">
          <path id="Trazado_59260" data-name="Trazado 59260" d="M1028.513,353.9H1049.5a9.745,9.745,0,0,0,.361-4.041,5.083,5.083,0,0,0-3.573-4.3c-1.818-.63-3.213-.864-4.355-1.935-1.242-1.169-2.169-3.33-2.953-8.063l-9.591,1.647A42.927,42.927,0,0,0,1028.513,353.9Z" transform="translate(-1028.033 -335.565)" fill="#263c45"/>
          <path id="Trazado_59261" data-name="Trazado 59261" d="M1047.218,346.448a5.083,5.083,0,0,0-3.573-4.3c-1.818-.63-3.213-.864-4.355-1.935-2.655.819-6.373,2.322-7.523,4.6C1030.164,347.933,1042.431,347.439,1047.218,346.448Z" transform="translate(-1025.394 -332.149)" fill="#375360"/>
        </g>
        <g id="Grupo_29236" data-name="Grupo 29236" transform="translate(67.758 125.037)">
          <g id="Grupo_29234" data-name="Grupo 29234">
            <path id="Trazado_59262" data-name="Trazado 59262" d="M1066.106,390.494s-1.6,5.212-12.052,1.614c0,0-7.764-58.325-8.965-59.606s-13.519-39.382-13.519-39.382h-3.857s-12.321,38.093-13.52,39.382-8.956,59.606-8.956,59.606c-10.464,3.6-12.06-1.614-12.06-1.614l5.025-62.88,10.473-64.832,20.968,2.342,20.968-2.342,2.731,16.931.113.665,7.627,47.237Z" transform="translate(-993.177 -262.782)" fill="#bf2e43"/>
          </g>
          <g id="Grupo_29235" data-name="Grupo 29235" transform="translate(34.649 8.963)">
            <path id="Trazado_59263" data-name="Trazado 59263" d="M1031.9,276.58a13.833,13.833,0,0,1-9.409-8.453l.583-.179a13.2,13.2,0,0,0,8.713,7.967Z" transform="translate(-1006.276 -267.948)" fill="#99263d"/>
            <path id="Trazado_59264" data-name="Trazado 59264" d="M1016.406,280.683a2.81,2.81,0,0,1-2.124.883c.024,1.565,0,3.218-.089,4.872h-.609a97.255,97.255,0,0,0-.437-13.828l.6-.073c.009.066.429,3.762.519,8.413a2.243,2.243,0,0,0,1.7-.68c2-2.115.843-8.228.826-8.283l.6-.114C1017.443,272.132,1018.626,278.349,1016.406,280.683Z" transform="translate(-1013.147 -265.064)" fill="#99263d"/>
          </g>
        </g>
        <g id="Grupo_29237" data-name="Grupo 29237" transform="translate(146.949)">
          <path id="Trazado_59265" data-name="Trazado 59265" d="M1054.054,201.7a19.3,19.3,0,0,0-3.546,1.844c-1.812,1.653-2.823,2.559-4.164,2.934s-1.447,2.818-1.447,2.818-5.132,2.19-6.078-1.128c0,0,2.188-4.806,2.288-5.419.208-1.218-.89-2.78-.052-4.921a17.394,17.394,0,0,0,.848-5.245s1.117-.6,1.469.547-.217,2.948.1,3.411a1.381,1.381,0,0,0,.215.252.079.079,0,0,1,.017.024,1.306,1.306,0,0,0,1.022.422.156.156,0,0,0,.083-.005c1.334-.288,3.331-2.592,4.122-3.7,1.095-1.541,2.724-3.581,3.378-2.535s-.821,1.253-2.62,5.113l.312.3c-.115.286,2.219-1.492,3.97-3.5,1.208-1.378,1.757-.118,1.619.5s-1.549,1.829-2.412,2.835c-.576.659-1.182,1.341-1.542,1.745l.234.526c3.359-1.433,3.656-2.856,4.541-2.266s-1.034,2.49-2.1,2.96a9.973,9.973,0,0,0-1.891,1.4c2.781-.6,3.3-1.617,3.9-.994C1056.933,200.277,1055.016,201.5,1054.054,201.7Z" transform="translate(-1038.819 -190.717)" fill="#e89e8e"/>
          <path id="Trazado_59266" data-name="Trazado 59266" d="M1042.576,198.226c.545-1.765-.774-3.753-.942-3.992a1.306,1.306,0,0,0,1.022.422A3.159,3.159,0,0,1,1042.576,198.226Z" transform="translate(-1036.75 -188.131)" fill="#d26e4e"/>
        </g>
        <g id="Grupo_29238" data-name="Grupo 29238" transform="translate(0 28.036)">
          <path id="Trazado_59267" data-name="Trazado 59267" d="M958.775,219.825a19.332,19.332,0,0,1,3.975.413c2.294.871,3.567,1.343,4.952,1.2s2.382,2.087,2.382,2.087,5.576.153,5.236-3.281c0,0-3.8-3.666-4.119-4.2-.642-1.055-.194-2.911-1.759-4.594a17.345,17.345,0,0,1-2.717-4.567s-1.26-.147-1.166,1.048,1.285,2.662,1.162,3.208a1.435,1.435,0,0,1-.108.314.073.073,0,0,0-.007.028,1.306,1.306,0,0,1-.794.769.181.181,0,0,1-.08.026c-1.346.222-4.051-1.185-5.193-1.924-1.584-1.031-3.85-2.328-4.074-1.116s1.225.862,4.317,3.793l-.179.4c.212.224-2.613-.573-4.978-1.794-1.629-.835-1.678.538-1.322,1.06s2.115,1.131,3.286,1.752c.777.4,1.591.812,2.075,1.055l-.024.576c-3.65-.1-4.449-1.313-5.056-.439s1.877,1.935,3.04,1.981a9.947,9.947,0,0,1,2.275.607c-2.806.47-3.658-.293-3.989.508C955.574,219.559,957.809,219.993,958.775,219.825Z" transform="translate(-954.125 -206.876)" fill="#e89e8e"/>
          <path id="Trazado_59268" data-name="Trazado 59268" d="M962.263,213.589c-1.155-1.442-.659-3.775-.592-4.06a1.306,1.306,0,0,1-.794.769A3.16,3.16,0,0,0,962.263,213.589Z" transform="translate(-949.189 -204.925)" fill="#d26e4e"/>
        </g>
        <g id="Grupo_29245" data-name="Grupo 29245" transform="translate(103.023 13.201)">
          <g id="Grupo_29239" data-name="Grupo 29239">
            <path id="Trazado_59269" data-name="Trazado 59269" d="M1064.889,204.762s-.559,2.049-1.468,5.146c-.364,1.265-.793,2.7-1.263,4.247-.73,2.391-1.565,5.033-2.448,7.659-.479,1.435-.974,2.861-1.475,4.239a73.019,73.019,0,0,1-3.8,9c-.17.316-.34.616-.5.89a18.993,18.993,0,0,1-2.033,2.675,70.57,70.57,0,0,1-5.4,5.415c-1.062.98-2.19,1.985-3.349,2.99-1.9,1.647-3.881,3.316-5.852,4.921-1.232,1.013-2.455,2-3.639,2.943-6.071,4.837-11.1,8.559-11.1,8.559L1013.5,244.93c2.585-1.751,7.351-4.685,12.336-7.683,1.174-.713,2.358-1.428,3.534-2.132,1.824-1.086,3.614-2.148,5.268-3.137,1.3-.762,2.512-1.483,3.607-2.124,1.548-.916,2.852-1.678,3.786-2.228,1-.592,1.588-.933,1.588-.933l1.1-2.139c.8-1.563,1.994-3.866,3.354-6.468.6-1.15,1.234-2.367,1.889-3.6,1.029-1.961,2.106-3.978,3.144-5.908.673-1.249,1.338-2.464,1.954-3.592,1.744-3.144,3.2-5.656,3.956-6.663A9.7,9.7,0,0,1,1064.889,204.762Z" transform="translate(-1013.502 -198.325)" fill="#fff"/>
          </g>
          <g id="Grupo_29240" data-name="Grupo 29240" transform="translate(12.336 36.79)">
            <path id="Trazado_59270" data-name="Trazado 59270" d="M1032.072,236.355c-1.232,1.013-2.455,2-3.639,2.943a34.511,34.511,0,0,0-7.822-17.637c1.175-.713,2.358-1.428,3.534-2.132A38.268,38.268,0,0,1,1032.072,236.355Z" transform="translate(-1020.612 -219.529)" fill="#aacce9"/>
          </g>
          <g id="Grupo_29241" data-name="Grupo 29241" transform="translate(21.138 31.529)">
            <path id="Trazado_59271" data-name="Trazado 59271" d="M1037.544,230.674c-1.062.98-2.19,1.985-3.349,2.99-2.115-8.023-6-12.716-8.51-15.043,1.3-.762,2.512-1.483,3.607-2.124A34.888,34.888,0,0,1,1037.544,230.674Z" transform="translate(-1025.685 -216.497)" fill="#aacce9"/>
          </g>
          <g id="Grupo_29242" data-name="Grupo 29242" transform="translate(28.531 26.229)">
            <path id="Trazado_59272" data-name="Trazado 59272" d="M1042.346,223.939c-.17.316-.34.616-.5.89a19,19,0,0,1-2.034,2.675,41.261,41.261,0,0,0-9.864-10.99l1.587-.933,1.1-2.139A44.5,44.5,0,0,1,1042.346,223.939Z" transform="translate(-1029.946 -213.442)" fill="#aacce9"/>
          </g>
          <g id="Grupo_29243" data-name="Grupo 29243" transform="translate(34.576 16.162)">
            <path id="Trazado_59273" data-name="Trazado 59273" d="M1045.062,214.967c-.479,1.435-.974,2.861-1.475,4.239a52.66,52.66,0,0,0-10.157-7.967c.6-1.15,1.234-2.367,1.89-3.6A58,58,0,0,1,1045.062,214.967Z" transform="translate(-1033.43 -207.64)" fill="#aacce9"/>
          </g>
          <g id="Grupo_29244" data-name="Grupo 29244" transform="translate(39.61 6.663)">
            <path id="Trazado_59274" data-name="Trazado 59274" d="M1046.641,207.086c-.364,1.265-.793,2.7-1.263,4.247a31.7,31.7,0,0,0-9.047-5.576c.673-1.249,1.338-2.464,1.954-3.592A36.907,36.907,0,0,1,1046.641,207.086Z" transform="translate(-1036.331 -202.165)" fill="#aacce9"/>
          </g>
        </g>
        <g id="Grupo_29252" data-name="Grupo 29252" transform="translate(14.79 38.586)">
          <g id="Grupo_29246" data-name="Grupo 29246">
            <path id="Trazado_59275" data-name="Trazado 59275" d="M1025.708,238.975l-1.622,20.546s-5.681-1.516-12.8-3.68c-1.369-.413-2.788-.852-4.221-1.3-2.538-.8-5.139-1.662-7.652-2.545-1.371-.479-2.708-.956-4-1.451a73.386,73.386,0,0,1-7.822-3.364,19.111,19.111,0,0,1-2.8-1.7c-.234-.179-.477-.382-.737-.607a63.635,63.635,0,0,1-5.95-6.088c-.9-1.036-1.824-2.115-2.755-3.225-1.824-2.2-3.647-4.482-5.318-6.63-.9-1.143-1.742-2.245-2.528-3.274-2.87-3.777-4.863-6.541-4.863-6.541.2-4.79,3.762-6.152,3.762-6.152,1.263.779,4.214,3.1,7.65,5.91,1.022.835,2.092,1.709,3.17,2.6,1.824,1.508,3.68,3.064,5.406,4.523,1.1.925,2.148,1.808,3.113,2.618,1.572,1.338,2.91,2.479,3.841,3.274.892.755,1.411,1.2,1.411,1.2s.875.139,2.367.366c1.313.2,3.113.486,5.188.817,1.272.2,2.641.415,4.084.649,1.775.292,3.647.592,5.544.907,1.346.22,2.7.446,4.037.665C1017.667,237.41,1022.8,238.326,1025.708,238.975Z" transform="translate(-962.649 -212.956)" fill="#fff"/>
          </g>
          <g id="Grupo_29247" data-name="Grupo 29247" transform="translate(44.131 22.864)">
            <path id="Trazado_59276" data-name="Trazado 59276" d="M992.591,246.155c-1.369-.413-2.788-.852-4.221-1.3a58.67,58.67,0,0,1,1.117-18.716c1.346.22,2.7.446,4.037.665A55.337,55.337,0,0,0,992.591,246.155Z" transform="translate(-988.084 -226.134)" fill="#aacce9"/>
          </g>
          <g id="Grupo_29248" data-name="Grupo 29248" transform="translate(32.77 21.308)">
            <path id="Trazado_59277" data-name="Trazado 59277" d="M988.757,225.886a57.351,57.351,0,0,0-3.226,17.078c-1.371-.479-2.708-.956-4-1.45a60.784,60.784,0,0,1,3.137-16.277C985.945,225.433,987.314,225.652,988.757,225.886Z" transform="translate(-981.536 -225.237)" fill="#aacce9"/>
          </g>
          <g id="Grupo_29249" data-name="Grupo 29249" transform="translate(21.414 18.926)">
            <path id="Trazado_59278" data-name="Trazado 59278" d="M984.3,225.429a76.252,76.252,0,0,0-5.771,13.729,19.112,19.112,0,0,1-2.8-1.7c-.234-.179-.477-.382-.737-.607a82.066,82.066,0,0,1,5.528-12.985c.892.755,1.41,1.2,1.41,1.2S982.8,225.2,984.3,225.429Z" transform="translate(-974.991 -223.864)" fill="#aacce9"/>
          </g>
          <g id="Grupo_29250" data-name="Grupo 29250" transform="translate(12.709 13.034)">
            <path id="Trazado_59279" data-name="Trazado 59279" d="M980.365,223.086a80.487,80.487,0,0,0-7.636,10.171c-.9-1.036-1.824-2.115-2.755-3.225a85.256,85.256,0,0,1,7.278-9.564C978.354,221.393,979.4,222.276,980.365,223.086Z" transform="translate(-969.974 -220.468)" fill="#aacce9"/>
          </g>
          <g id="Grupo_29251" data-name="Grupo 29251" transform="translate(4.863 5.91)">
            <path id="Trazado_59280" data-name="Trazado 59280" d="M975.17,218.963a74.514,74.514,0,0,0-7.19,7.457c-.9-1.143-1.742-2.245-2.528-3.274A77.149,77.149,0,0,1,972,216.362C973.022,217.2,974.093,218.071,975.17,218.963Z" transform="translate(-965.452 -216.362)" fill="#aacce9"/>
          </g>
        </g>
        <g id="Grupo_29259" data-name="Grupo 29259" transform="translate(66.413 54.786)">
          <path id="Trazado_59281" data-name="Trazado 59281" d="M1058.093,297.455s-11.338,11.857-26.763,14.791a156.544,156.544,0,0,1-25.684,2.61s-.69-3.088-1.752-7.934c-.267-1.249-.568-2.618-.883-4.077-.567-2.618-1.2-5.544-1.855-8.641-.285-1.32-.567-2.667-.861-4.044-.534-2.521-1.077-5.113-1.62-7.716-.276-1.338-.552-2.682-.819-4.02-.671-3.3-1.329-6.565-1.929-9.661q-.411-2.1-.777-4.086c-.7-3.711-1.3-7.067-1.726-9.8-.252-1.622-.446-3.024-.567-4.15-.04-.406-.073-.779-.1-1.11-.2-2.812-.309-5.422-.34-7.764-.024-1.525-.017-2.927,0-4.192.073-4.464.34-7.2.34-7.2,3.2-2.188,25.271,4.9,25.271,4.9s16.3-14.03,18.853-13.016a9.88,9.88,0,0,1,4.117,3.7,28.412,28.412,0,0,1,2.139,3.647,64.561,64.561,0,0,1,3.3,8.058c.47,1.393.932,2.852,1.386,4.36.745,2.488,1.442,5.106,2.115,7.8.331,1.362.665,2.748.98,4.142.6,2.627,1.168,5.294,1.686,7.952.283,1.411.55,2.813.81,4.206.446,2.4.868,4.766,1.247,7.051.252,1.476.488,2.927.706,4.329.495,3.12.923,6.029,1.287,8.608.22,1.581.415,3.031.585,4.336C1057.81,294.82,1058.093,297.455,1058.093,297.455Z" transform="translate(-992.402 -222.293)" fill="#fff"/>
          <g id="Grupo_29253" data-name="Grupo 29253" transform="translate(0 3.755)">
            <path id="Trazado_59282" data-name="Trazado 59282" d="M1043.138,228.1c-4.927,5.026-13.608,12.426-23.593,14.42a34.225,34.225,0,0,1-6.6.576,95.3,95.3,0,0,1-20.529-2.837c-.024-1.525-.017-2.927,0-4.192,8.738,2.108,19.29,3.883,26.333,2.481,9.411-1.872,17.848-9.475,22.248-14.1A28.413,28.413,0,0,1,1043.138,228.1Z" transform="translate(-992.402 -224.457)" fill="#aacce9"/>
          </g>
          <g id="Grupo_29254" data-name="Grupo 29254" transform="translate(0.453 15.46)">
            <path id="Trazado_59283" data-name="Trazado 59283" d="M1047.633,235.563c-5.033,4.718-17.67,13.535-41.677,13.535a109.183,109.183,0,0,1-12.725-.769c-.252-1.622-.446-3.024-.567-4.15,34.973,4.336,50.179-9.305,53.584-12.976C1046.717,232.6,1047.178,234.055,1047.633,235.563Z" transform="translate(-992.663 -231.203)" fill="#aacce9"/>
          </g>
          <g id="Grupo_29255" data-name="Grupo 29255" transform="translate(2.747 27.617)">
            <path id="Trazado_59284" data-name="Trazado 59284" d="M1049.756,242.352c-9.742,5.488-29.657,14.736-53.169,14.736-.609,0-1.216-.009-1.825-.024q-.411-2.1-.777-4.086c24.4.706,45.526-9.482,54.791-14.767C1049.108,239.572,1049.441,240.958,1049.756,242.352Z" transform="translate(-993.985 -238.21)" fill="#aacce9"/>
          </g>
          <g id="Grupo_29256" data-name="Grupo 29256" transform="translate(5.453 39.71)">
            <path id="Trazado_59285" data-name="Trazado 59285" d="M1051.107,249.386c-8.446,4.612-29.958,14.97-54.743,16.235-.276-1.338-.552-2.682-.819-4.02,25.215-1.175,47.537-12.418,54.751-16.421C1050.579,246.591,1050.846,247.993,1051.107,249.386Z" transform="translate(-995.545 -245.18)" fill="#aacce9"/>
          </g>
          <g id="Grupo_29257" data-name="Grupo 29257" transform="translate(7.893 50.967)">
            <path id="Trazado_59286" data-name="Trazado 59286" d="M1052.027,256c-9.67,5.665-30.728,16.2-54.215,16.615-.285-1.32-.567-2.667-.861-4.044,23.838-.21,45.7-11.7,54.369-16.9C1051.572,253.145,1051.808,254.6,1052.027,256Z" transform="translate(-996.951 -251.668)" fill="#aacce9"/>
          </g>
          <g id="Grupo_29258" data-name="Grupo 29258" transform="translate(10.608 63.904)">
            <path id="Trazado_59287" data-name="Trazado 59287" d="M1052.748,263.46c-9.961,5.552-31.984,16.414-51.914,16.414q-.716,0-1.435-.024c-.267-1.249-.568-2.618-.883-4.077,20.312.949,44.473-11.453,53.648-16.648C1052.384,260.7,1052.578,262.155,1052.748,263.46Z" transform="translate(-998.516 -259.124)" fill="#aacce9"/>
          </g>
        </g>
        <path id="Trazado_59288" data-name="Trazado 59288" d="M1012.937,225.089s-.661,5.495,1.367,7.178c0,0-1.027,3.916-4.072,4.662-3.519.859-5.5-2.839-5.5-2.839s.927-5.363-1.287-6.765Z" transform="translate(-917.873 -165.452)" fill="#fd847f"/>
        <g id="Grupo_29260" data-name="Grupo 29260" transform="translate(69.34 31.675)">
          <path id="Trazado_59289" data-name="Trazado 59289" d="M1022.474,225.284s2.145-3.637-2.99-9.4c0,0-2.431-5.521-10.806-6.791s-14.59,7.868-14.59,12.89,2.972,0,2.972,0a20.937,20.937,0,0,0,1.621,5.082s-.309,5.061,2.885,5.066S1022.474,225.284,1022.474,225.284Z" transform="translate(-994.089 -208.973)" fill="#aacce9"/>
          <path id="Trazado_59290" data-name="Trazado 59290" d="M1000.532,222.065s-3.33-1.654-2.662,1.36c.776,3.493,4.294,3.824,4.534,2.551S1000.532,222.065,1000.532,222.065Z" transform="translate(-991.374 -199.683)" fill="#e89e8e"/>
          <path id="Trazado_59291" data-name="Trazado 59291" d="M1009.473,219.294s1.66-3.326,2.943-.519c1.487,3.253-1.119,5.639-2.079,4.768S1009.473,219.294,1009.473,219.294Z" transform="translate(-982.783 -202.596)" fill="#e89e8e"/>
          <path id="Trazado_59292" data-name="Trazado 59292" d="M1012.643,237.587c-5.536,1.856-9.874-.711-13.512-11.559-1.876-5.6-.179-9.982,6.022-12.062s9.965.477,11.84,6.073C1020.9,231.7,1018.361,235.67,1012.643,237.587Z" transform="translate(-990.915 -205.831)" fill="#e89e8e"/>
          <path id="Trazado_59293" data-name="Trazado 59293" d="M1004.4,212.606c-12.38,4.589-4.945,16.271-4.945,16.271l1.8,1.633a10.739,10.739,0,0,1-.229-5.207,7.6,7.6,0,0,1-.692-4.841c1.574-1.326,5.427-3.829,12.555-4.591a8,8,0,0,1,2.119,3.826,18.064,18.064,0,0,1,4.056,5.658l.217-2.873S1016.424,208.147,1004.4,212.606Z" transform="translate(-991.771 -206.934)" fill="#f2ce93"/>
        </g>
      </g>
      <g id="Grupo_29273" data-name="Grupo 29273" transform="translate(1072.93 246.902)">
        <g id="Grupo_29267" data-name="Grupo 29267" transform="translate(6.655 115.976)">
          <g id="Grupo_29262" data-name="Grupo 29262">
            <path id="Trazado_59294" data-name="Trazado 59294" d="M1022.777,386.9l-5.455,1.274s-8.526-45.7-10.488-50.528c-1.685-4.166-8.89-20.1-11.281-32.34a8.485,8.485,0,0,1-1.872-.267h-.009c-.252-.057-.519-.114-.8-.17-.25-.057-.517-.115-.786-.17-.2,12.2-2.852,27.24-3.663,31.455-.98,5.115-.454,51.63-.454,51.63l-5.6-.186c-10.625-37.664-5.016-51.815-5.016-51.815s-9.742-33.9-6.29-45.859a80.093,80.093,0,0,1,3.914-10.643c.113-.252.219-.495.34-.729a71.332,71.332,0,0,1,4.952-9.168l11.389,1.426.106-.186.331.064v3.574l1.443-.073.323-.024h.009l4.726-.25.647-.033,4.135-.219s2.479,3.947,6.014,10.292c.13.245.267.488.4.731,1.256,2.278,2.634,4.839,4.076,7.619,5.715,11.064,3.762,42.819,3.762,42.819S1025.874,347.9,1022.777,386.9Z" transform="translate(-970.318 -269.388)" fill="#6b6bd6"/>
          </g>
          <g id="Grupo_29263" data-name="Grupo 29263" transform="translate(4.655 1.086)">
            <path id="Trazado_59295" data-name="Trazado 59295" d="M982.046,270.241c-.04.082-2.974,7.06-9.045,8.583.113-.252.219-.495.34-.729,5.446-1.7,8.106-8.009,8.137-8.082Z" transform="translate(-973.001 -270.014)" fill="#6161bc"/>
          </g>
          <g id="Grupo_29264" data-name="Grupo 29264" transform="translate(28.022 3.68)">
            <path id="Trazado_59296" data-name="Trazado 59296" d="M997.913,283.132c-6.8-1.459-10.27-8.575-11.193-10.771-.163-.4-.245-.633-.252-.649l.574-.2c.009.016.115.324.325.819.973,2.254,4.159,8.486,10.148,10.074C997.646,282.646,997.783,282.889,997.913,283.132Z" transform="translate(-986.469 -271.509)" fill="#6161bc"/>
          </g>
          <g id="Grupo_29265" data-name="Grupo 29265" transform="translate(17.748 3.647)">
            <path id="Trazado_59297" data-name="Trazado 59297" d="M986.153,303.5c-.252-.057-.519-.114-.8-.17a48.567,48.567,0,0,1-4.263-12.288c-2.124-9.418,2.709-19.453,2.757-19.551l.55.269c-.048.1-4.79,9.944-2.715,19.152.09.389.179.77.267,1.135l.147.592A43.643,43.643,0,0,0,986.153,303.5Z" transform="translate(-980.547 -271.49)" fill="#6161bc"/>
          </g>
          <g id="Grupo_29266" data-name="Grupo 29266" transform="translate(18.892 4.667)">
            <path id="Trazado_59298" data-name="Trazado 59298" d="M981.3,292.237c-.029,0-.057,0-.089,0l.038-.607a1.305,1.305,0,0,0,1-.5c.4-.46,1.265-1.915.569-5.488-.933-4.8,2.618-13.2,2.771-13.559l.559.238c-.036.085-3.632,8.59-2.733,13.205.72,3.7-.135,5.349-.71,6A1.912,1.912,0,0,1,981.3,292.237Z" transform="translate(-981.207 -272.078)" fill="#6161bc"/>
          </g>
        </g>
        <path id="Trazado_59299" data-name="Trazado 59299" d="M982.153,257.11s1.8-3.265-.734-8.873-2.014-21.114,10.693-20.453c0,0,7.537-1.249,11.339,3.69s6.888,22.342,2.913,35.254S977.046,276.185,982.153,257.11Z" transform="translate(-956.395 -184.097)" fill="#d14252"/>
        <path id="Trazado_59300" data-name="Trazado 59300" d="M999.391,293.265a26.179,26.179,0,0,1-23.107-4.28s-2.084-42.819,1.881-45.689c1.733-1.256,5.155-.25,8.453,1.282a63.343,63.343,0,0,1,8.325,4.822,63.514,63.514,0,0,1,13.2-.406c3.7.4,6.769,1.483,6.906,3.94C1015.416,259.263,999.391,293.265,999.391,293.265Z" transform="translate(-959.68 -173.009)" fill="#e89e8e"/>
        <path id="Trazado_59301" data-name="Trazado 59301" d="M1003.851,248.309c-2.495-.26-2.958,1.629-5.453,2.537a34.792,34.792,0,0,1-6.638,1.726c-1.135.1-1.735,1.515-1.735,1.515s-.406-1.905-1.022-2.066c-.6-.154-5.892-5.479-6.994-8.226a63.345,63.345,0,0,1,8.325,4.822,63.516,63.516,0,0,1,13.2-.406C1003.738,248.276,1003.851,248.309,1003.851,248.309Z" transform="translate(-955.071 -172.225)" fill="#fd847f"/>
        <g id="Grupo_29268" data-name="Grupo 29268" transform="translate(13.967 232.076)">
          <path id="Trazado_59302" data-name="Trazado 59302" d="M976.754,343.167c.342-2.332-.519-3.987.09-5.111.94-1.738,1.935.458,1.935.458.08-2.644,4.513-2.641,4.955-1.43a8.793,8.793,0,0,0,.394.894c.276-.637.743-1.256,1.35-.894,2.368,1.419-.578,5.08,1.579,7.749,2.743,3.4,1.055,8.53,1.055,8.53H974.971C973.432,346.164,976.411,345.489,976.754,343.167Z" transform="translate(-974.532 -336.303)" fill="#d0d7db"/>
          <path id="Trazado_59303" data-name="Trazado 59303" d="M983.551,340.546a8.1,8.1,0,0,0-7.226.527l.81-1.485a7.225,7.225,0,0,1,6.038-.432Z" transform="translate(-973.215 -334.551)" fill="#b0bcc1"/>
          <path id="Trazado_59304" data-name="Trazado 59304" d="M984.421,341.964a11.794,11.794,0,0,0-8.542.625l.774-1.575s3.918-1.7,7.226-.427Z" transform="translate(-973.542 -333.5)" fill="#b0bcc1"/>
        </g>
        <g id="Grupo_29269" data-name="Grupo 29269" transform="translate(49.652 232.076)">
          <path id="Trazado_59305" data-name="Trazado 59305" d="M1006.972,343.167c-.342-2.332.519-3.987-.09-5.111-.94-1.738-1.935.458-1.935.458-.08-2.644-4.513-2.641-4.957-1.43a8.083,8.083,0,0,1-.394.894c-.274-.637-.741-1.256-1.348-.894-2.37,1.419.576,5.08-1.579,7.749-2.745,3.4-1.055,8.53-1.055,8.53h13.14C1010.293,346.164,1007.313,345.489,1006.972,343.167Z" transform="translate(-995.099 -336.303)" fill="#d0d7db"/>
          <path id="Trazado_59306" data-name="Trazado 59306" d="M997.264,340.546a8.1,8.1,0,0,1,7.228.527l-.812-1.485a7.223,7.223,0,0,0-6.038-.432Z" transform="translate(-993.508 -334.551)" fill="#b0bcc1"/>
          <path id="Trazado_59307" data-name="Trazado 59307" d="M996.952,341.964a11.8,11.8,0,0,1,8.543.625l-.774-1.575s-3.918-1.7-7.228-.427Z" transform="translate(-993.738 -333.5)" fill="#b0bcc1"/>
        </g>
        <path id="Trazado_59308" data-name="Trazado 59308" d="M987.2,238.756s.947,11.432-2.233,13.067c0,0,2.349,4.334,8.651,1.7,0,0-1.065-5.882,3.1-12.862C999.513,235.983,987.2,238.756,987.2,238.756Z" transform="translate(-952.895 -176.529)" fill="#fd847f"/>
        <g id="Grupo_29270" data-name="Grupo 29270" transform="translate(25.025 44.938)">
          <path id="Trazado_59309" data-name="Trazado 59309" d="M993.071,236.641s2.367-2.752,2.908.212c.63,3.434-2.408,5.068-3.106,4.013S993.071,236.641,993.071,236.641Z" transform="translate(-972.305 -223.276)" fill="#e89e8e"/>
          <path id="Trazado_59310" data-name="Trazado 59310" d="M983.752,237.412s-2.757-2.361-2.844.651c-.1,3.489,3.147,4.643,3.678,3.5S983.752,237.412,983.752,237.412Z" transform="translate(-980.906 -222.501)" fill="#e89e8e"/>
          <path id="Trazado_59311" data-name="Trazado 59311" d="M992.911,253.975c5.684-.432,8.608-4.388,7.759-15.52-.437-5.743-3.626-9.043-9.99-8.557s-8.778,4.209-8.34,9.952C983.25,251.813,987.041,254.423,992.911,253.975Z" transform="translate(-979.889 -227.412)" fill="#e89e8e"/>
          <path id="Trazado_59312" data-name="Trazado 59312" d="M993.43,232.749s2.1-.685,2.977,2.521c1.52,5.557,2.618,14.6,6.219,19.06,2.615,3.241,4.206,1.924,4.206,1.924a13.153,13.153,0,0,0-.406-6.416c-1.114-3.208.3-14.741-3.8-18.954s-11.339-1.52-11.339-1.52a7.1,7.1,0,0,0-6.888,0c-3.4,2.068-4.365,11.352-.9,15.473,0,0-.177-3.493,1.343-4.851S987.22,231.027,993.43,232.749Z" transform="translate(-980.595 -228.445)" fill="#d14252"/>
        </g>
        <g id="Grupo_29271" data-name="Grupo 29271">
          <path id="Trazado_59313" data-name="Trazado 59313" d="M977.673,206.138c-1.308,4.207,1.907,6.109-.474,8.986-1.475,1.782-3.708.331-3.708.331a28.477,28.477,0,0,0-4.94-6.493c-1.317-1.289-.38-1.306-.38-1.306-.132-.109-.262-.206-.392-.3-.986-.744-1.822-1.145-.9-1.43,1.043-.33,3.933,1.654,3.933,1.654-3.442-3.829-4.742-3.444-3.833-3.836,1.239-.54,4.712,2.321,4.817,2.408-1.662-2.637-3.132-3.513-2.183-3.6s4.5,4.164,5.779,5.75c.288.356.463.583.463.583C976.7,205.38,977.673,206.138,977.673,206.138Z" transform="translate(-966.483 -202.545)" fill="#e89e8e"/>
          <path id="Trazado_59314" data-name="Trazado 59314" d="M971.913,205.86c.288.356.463.583.463.583a2.98,2.98,0,0,0-.517,2.924A2.664,2.664,0,0,1,971.913,205.86Z" transform="translate(-962.998 -200.109)" fill="#fd847f"/>
          <path id="Trazado_59315" data-name="Trazado 59315" d="M970.58,207.811c-.316-.3-2.106-2.013-2.958-2.155-.132-.109-.262-.206-.392-.3C967.979,204.759,970.242,207.4,970.58,207.811Z" transform="translate(-965.933 -200.545)" fill="#fd847f"/>
        </g>
        <path id="Trazado_59316" data-name="Trazado 59316" d="M976.65,209.795s-.472,27.766-1.916,33.278c0,0,5.049,17.439,12.61,23.768,0,0,1.178,4.73-5.356,14.04,0,0-12.716-22.746-14.758-35.761l5.712-34.994Z" transform="translate(-965.933 -197.216)" fill="#e89e8e"/>
        <path id="Trazado_59317" data-name="Trazado 59317" d="M992.109,252.672c.649,2.3,1.008,10.383,8.673,14.529s15.869-1.922,18.1-8.545c0,0,.932-1.405,3.966,2.011,0,0,15.942,7.728,17.994,11.738s.821,19.358-5.554,19.587-14.075-6.864-16.1-2.2-13.88,21.3-38.449,7.917c0,0-3.092-3.864-3.092-7.308s-1.568-26.158-1.568-26.158-9.057-2.623-6.784-24c0,0,6.239,3.453,6.08-7.947,0,0,5.148-2.389,6.852,7.188,1.142,6.416,7.482,11.106,7.482,11.106S991.124,249.174,992.109,252.672Z" transform="translate(-964.684 -180.872)" fill="#62cca2"/>
        <path id="Trazado_59318" data-name="Trazado 59318" d="M1015.887,268.445c5.426-2.273,17.356-12.123,21.614-17.836l-2.556-2.367s-14.052,9.531-19.446,11.228-8.245,4.79-7.589,8.623S1014.747,268.922,1015.887,268.445Z" transform="translate(-936.1 -168.956)" fill="#e89e8e"/>
        <g id="Grupo_29272" data-name="Grupo 29272" transform="translate(98.758 73.64)">
          <path id="Trazado_59319" data-name="Trazado 59319" d="M1030.495,244.988c-2.644,3.526-6.068,2.035-7,5.649-.581,2.238,1.9,3.2,1.9,3.2a28.424,28.424,0,0,1,8.156.2c1.815.312,1.28-.46,1.28-.46.167.043.321.094.475.142,1.18.363,1.994.805,1.683-.111-.344-1.038-3.645-2.219-3.645-2.219,5.12.547,5.57,1.825,5.356.859-.29-1.322-4.643-2.459-4.775-2.493,3.111-.2,4.683.479,4.2-.344s-6.01-1.2-8.046-1.313c-.458-.026-.742-.035-.742-.035C1031.678,245.333,1030.495,244.988,1030.495,244.988Z" transform="translate(-1023.402 -244.988)" fill="#e89e8e"/>
          <path id="Trazado_59320" data-name="Trazado 59320" d="M1028.441,246.795c-.458-.026-.743-.035-.743-.035a2.985,2.985,0,0,1-2.068,2.132A2.665,2.665,0,0,0,1028.441,246.795Z" transform="translate(-1021.765 -243.686)" fill="#fd847f"/>
          <path id="Trazado_59321" data-name="Trazado 59321" d="M1027.983,249.285c.425.082,2.866.527,3.48,1.133.167.043.321.094.475.142C1031.982,249.6,1028.514,249.32,1027.983,249.285Z" transform="translate(-1020.035 -241.829)" fill="#fd847f"/>
        </g>
      </g>
      <g id="Grupo_29279" data-name="Grupo 29279" transform="translate(1010.018 287.424)">
        <path id="Trazado_59322" data-name="Trazado 59322" d="M939.737,290.045a69.484,69.484,0,0,1,10.284-20.821l10.315,1.709.1-.187.836.168.12,0,0,.026,10.65,2.129a99.453,99.453,0,0,1,7.632,20.605c3.048,12.067-6.071,42.55-6.071,42.55s5.134,14.3-6.753,51.588h-5.6s2.087-46.439,1.277-51.588c-.7-4.44-1.6-20.711-1.138-33.169a7.253,7.253,0,0,1-2.03.147h0c.036,12.463-1.407,28.668-2.254,33.079-.984,5.118-.46,51.628-.46,51.628l-5.6-.187c-10.627-37.663-5.014-51.812-5.014-51.812S936.286,302,939.737,290.045Z" transform="translate(-923.773 -194.055)" fill="#e89e8e"/>
        <path id="Trazado_59323" data-name="Trazado 59323" d="M984.384,252.938c-.362-6.329-20.114-3.54-20.114-3.54s-12.813-8.975-16.778-6.1c-1.4,1.017-2.047,7.041-2.3,14.4-1.489,2.636-2.779,6.609-.127,10.218.045,10.811.543,21.07.543,21.07a26.193,26.193,0,0,0,23.113,4.282s4.73-10.039,8.993-20.22a9.547,9.547,0,0,0,3.239-8.066C983.032,259.529,984.5,254.9,984.384,252.938Z" transform="translate(-920.437 -213.531)" fill="#6b6bd6"/>
        <path id="Trazado_59324" data-name="Trazado 59324" d="M977.868,233.071c-5.733-9.786-20.224-8.585-25.181-2.205-5.995,7.716-2.809,25.687-2.809,25.687s13.809-11.507,22.084,4.221C971.962,260.774,984.281,244.014,977.868,233.071Z" transform="translate(-916.396 -225.9)" fill="#f2ce93"/>
        <g id="Grupo_29274" data-name="Grupo 29274" transform="translate(22.541 191.553)">
          <path id="Trazado_59325" data-name="Trazado 59325" d="M945.435,343.167c.342-2.332-.517-3.987.09-5.111.942-1.738,1.934.458,1.934.458.08-2.644,4.513-2.641,4.957-1.43a8.712,8.712,0,0,0,.394.894c.276-.637.742-1.256,1.348-.894,2.37,1.419-.576,5.08,1.579,7.749,2.745,3.4,1.055,8.53,1.055,8.53h-13.14C942.114,346.164,945.093,345.489,945.435,343.167Z" transform="translate(-943.214 -336.303)" fill="#263c45"/>
          <path id="Trazado_59326" data-name="Trazado 59326" d="M952.234,340.546a8.1,8.1,0,0,0-7.227.527l.81-1.485a7.224,7.224,0,0,1,6.038-.432Z" transform="translate(-941.896 -334.551)" fill="#375360"/>
          <path id="Trazado_59327" data-name="Trazado 59327" d="M953.1,341.964a11.8,11.8,0,0,0-8.543.625l.776-1.575s3.918-1.7,7.226-.427Z" transform="translate(-942.225 -333.5)" fill="#375360"/>
        </g>
        <g id="Grupo_29275" data-name="Grupo 29275" transform="translate(33.895 191.553)">
          <path id="Trazado_59328" data-name="Trazado 59328" d="M961.631,343.167c-.344-2.332.517-3.987-.09-5.111-.942-1.738-1.935.458-1.935.458-.08-2.644-4.513-2.641-4.957-1.43a8.752,8.752,0,0,1-.394.894c-.276-.637-.742-1.256-1.348-.894-2.37,1.419.576,5.08-1.579,7.749-2.745,3.4-1.055,8.53-1.055,8.53h13.14C964.952,346.164,961.972,345.489,961.631,343.167Z" transform="translate(-949.758 -336.303)" fill="#263c45"/>
          <path id="Trazado_59329" data-name="Trazado 59329" d="M951.923,340.546a8.1,8.1,0,0,1,7.227.527l-.81-1.485a7.225,7.225,0,0,0-6.038-.432Z" transform="translate(-948.167 -334.551)" fill="#375360"/>
          <path id="Trazado_59330" data-name="Trazado 59330" d="M951.611,341.964a11.8,11.8,0,0,1,8.543.625l-.775-1.575s-3.918-1.7-7.227-.427Z" transform="translate(-948.396 -333.5)" fill="#375360"/>
        </g>
        <path id="Trazado_59331" data-name="Trazado 59331" d="M955.884,238.756a30.041,30.041,0,0,1-2.235,13.067s2.351,4.334,8.653,1.7c0,0-1.065-5.882,3.1-12.862C968.2,235.983,955.884,238.756,955.884,238.756Z" transform="translate(-913.003 -217.051)" fill="#fd847f"/>
        <g id="Grupo_29276" data-name="Grupo 29276" transform="translate(35.99 2.219)">
          <path id="Trazado_59332" data-name="Trazado 59332" d="M963.544,236.834s2.995-2.049,2.757.954c-.276,3.481-3.632,4.277-4.036,3.08S963.544,236.834,963.544,236.834Z" transform="translate(-942.706 -220.584)" fill="#e89e8e"/>
          <path id="Trazado_59333" data-name="Trazado 59333" d="M954.091,235.325s-2.056-2.989-2.917-.1c-.994,3.345,1.848,5.3,2.656,4.325S954.091,235.325,954.091,235.325Z" transform="translate(-950.966 -222.191)" fill="#e89e8e"/>
          <path id="Trazado_59334" data-name="Trazado 59334" d="M959.8,252.957c5.6,1.043,9.446-2.027,11.491-13,1.055-5.661-1.178-9.671-7.454-10.841s-9.565,1.811-10.62,7.473C951.022,248.379,954.014,251.877,959.8,252.957Z" transform="translate(-949.841 -225.942)" fill="#e89e8e"/>
          <path id="Trazado_59335" data-name="Trazado 59335" d="M952.83,242.236s-2.33-6.791,1.895-12.364,15.633-1.437,17.725,2.854-2,12.963-2,12.963,3.158-11.5-3.2-13.4c0,0-1.836,2.691-7.155,3.1-5.379.415-6.314,3.533-6.314,3.533Z" transform="translate(-950.067 -227.179)" fill="#f2ce93"/>
        </g>
        <path id="Trazado_59336" data-name="Trazado 59336" d="M964.375,246.491s7.2.132,24.839,17.847c2.448,2.459-.342,10.162-7.655,5.412-8.054-5.231-13.4-10.646-15.074-8.644C966.485,261.105,962.283,250.964,964.375,246.491Z" transform="translate(-905.548 -210.765)" fill="#fd847f"/>
        <path id="Trazado_59337" data-name="Trazado 59337" d="M983.922,267.521c-.055-5.88-4.672-20.647-8.356-26.746l-3.156,1.471s3.521,16.611,3.055,22.247,1.324,9.444,5.12,10.284S983.934,268.758,983.922,267.521Z" transform="translate(-899.213 -214.967)" fill="#e89e8e"/>
        <g id="Grupo_29277" data-name="Grupo 29277" transform="translate(70.614 13.257)">
          <path id="Trazado_59338" data-name="Trazado 59338" d="M970.921,238.946c2.268,3.779-.408,6.387,2.587,8.62,1.853,1.383,3.68-.555,3.68-.555a28.563,28.563,0,0,1,3.264-7.478c.975-1.563.061-1.359.061-1.359.1-.137.2-.262.309-.387.781-.956,1.5-1.542.533-1.6-1.091-.073-3.43,2.538-3.43,2.538,2.438-4.535,3.791-4.468,2.816-4.634-1.332-.231-4.029,3.371-4.11,3.479.991-2.955,2.212-4.154,1.267-4.017s-3.383,5.11-4.253,6.954c-.2.413-.314.675-.314.675C971.686,237.979,970.921,238.946,970.921,238.946Z" transform="translate(-970.921 -233.541)" fill="#e89e8e"/>
          <path id="Trazado_59339" data-name="Trazado 59339" d="M972.623,237.555c-.2.413-.314.675-.314.675a2.982,2.982,0,0,1,1.194,2.721A2.664,2.664,0,0,0,972.623,237.555Z" transform="translate(-969.901 -230.59)" fill="#fd847f"/>
          <path id="Trazado_59340" data-name="Trazado 59340" d="M975.086,239.183c.236-.363,1.572-2.453,2.365-2.793.1-.137.2-.262.309-.387C976.892,235.6,975.319,238.706,975.086,239.183Z" transform="translate(-967.86 -231.757)" fill="#fd847f"/>
        </g>
        <path id="Trazado_59341" data-name="Trazado 59341" d="M959.695,242.754s-7.11-1.5-28.007,12.223c-2.9,1.9-1.747,10.015,6.385,6.864,8.955-3.47,15.709-7.726,16.943-5.422C955.015,256.419,960.826,247.56,959.695,242.754Z" transform="translate(-930.207 -213.548)" fill="#fd847f"/>
        <path id="Trazado_59342" data-name="Trazado 59342" d="M930.891,259.446c1.26-5.745,8.805-19.252,13.66-24.468l2.788,2.089s-6.85,15.536-7.549,21.149-3.231,8.972-7.121,9.015S930.626,260.655,930.891,259.446Z" transform="translate(-930.223 -219.228)" fill="#e89e8e"/>
        <g id="Grupo_29278" data-name="Grupo 29278" transform="translate(11.254 3.163)">
          <path id="Trazado_59343" data-name="Trazado 59343" d="M946.864,234.493c-2.993,3.234-.909,6.335-4.3,7.907-2.1.973-3.489-1.3-3.489-1.3a28.5,28.5,0,0,0-1.662-7.988c-.633-1.73.22-1.343.22-1.343-.071-.154-.147-.3-.224-.441-.567-1.095-1.15-1.817-.193-1.676,1.083.153,2.837,3.187,2.837,3.187-1.457-4.94-2.8-5.151-1.806-5.115,1.352.049,3.253,4.126,3.31,4.249-.364-3.1-1.313-4.52-.418-4.192s2.266,5.694,2.74,7.678c.108.446.168.725.168.725C946.312,233.389,946.864,234.493,946.864,234.493Z" transform="translate(-936.709 -227.723)" fill="#e89e8e"/>
          <path id="Trazado_59344" data-name="Trazado 59344" d="M941.539,232.183c.108.446.168.725.168.725a2.983,2.983,0,0,0-1.726,2.417A2.663,2.663,0,0,1,941.539,232.183Z" transform="translate(-934.366 -224.445)" fill="#fd847f"/>
          <path id="Trazado_59345" data-name="Trazado 59345" d="M939.08,233.467c-.156-.4-1.036-2.724-1.742-3.22-.071-.154-.147-.3-.224-.441C938.046,229.593,938.95,232.952,939.08,233.467Z" transform="translate(-936.411 -226.199)" fill="#fd847f"/>
        </g>
        <path id="Trazado_59346" data-name="Trazado 59346" d="M950.757,341.219a10.825,10.825,0,0,1,1.57,8.53H950.1A24.97,24.97,0,0,1,950.757,341.219Z" transform="translate(-915.692 -141.135)" fill="#1b2a30"/>
        <path id="Trazado_59347" data-name="Trazado 59347" d="M954.335,314.107c-.442,3.222.661,6.034,2.465,6.281s3.624-2.162,4.067-5.384-.661-6.033-2.465-6.281S954.778,310.887,954.335,314.107Z" transform="translate(-912.571 -165.034)" fill="#4c3254" opacity="0.75" style="mix-blend-mode: soft-light;isolation: isolate"/>
        <path id="Trazado_59348" data-name="Trazado 59348" d="M943.585,314.644c.68,3.18,2.674,5.45,4.454,5.068s2.674-3.265,2-6.446-2.674-5.45-4.454-5.068S942.907,311.464,943.585,314.644Z" transform="translate(-920.568 -165.438)" fill="#4c3254" opacity="0.75" style="mix-blend-mode: soft-light;isolation: isolate"/>
        <path id="Trazado_59349" data-name="Trazado 59349" d="M952.3,268.173s-24.084,32.985-16.526,67.917c0,0,8.151,7.575,14.541,4.941s13.006,6.881,18.716,3.847,10.745-5.264,14.712-3.644,10.631-5.144,10.631-5.144-2.948-38.624-17.588-64.134C976.788,271.955,964.863,277.405,952.3,268.173Z" transform="translate(-927.219 -194.828)" fill="#ffe278"/>
      </g>
      <g id="Grupo_29284" data-name="Grupo 29284" transform="translate(929.359 288.544)">
        <path id="Trazado_59350" data-name="Trazado 59350" d="M905.372,293.51s4.4,13.842,15.137,32.412c0,0-1.839,19.667,28.647,56.134l4.206-2.311s-15.681-36.665-18.234-47.535-1.456-25.365-9.659-48.036Z" transform="translate(-867.83 -184.186)" fill="#e89e8e"/>
        <path id="Trazado_59351" data-name="Trazado 59351" d="M925.793,275.953l-14.42-5.852c-2.507,8-8.981,13.776-8.465,26.331.255,6.213,4.3,12.591,4.3,12.591,17.026-.614,22.818-7.747,22.818-7.747l-2.583-12S925.692,281.172,925.793,275.953Z" transform="translate(-869.664 -194.53)" fill="#bf2e43"/>
        <path id="Trazado_59352" data-name="Trazado 59352" d="M896.392,285.094s-.472,14.515,3.451,35.607c0,0-8.3,17.925,8.269,62.476l4.735-.776s-2.544-39.8-1.322-50.892,7.6-20.867,6.928-48.507Z" transform="translate(-874.445 -185.048)" fill="#e89e8e"/>
        <path id="Trazado_59353" data-name="Trazado 59353" d="M931.675,276.6l-5.7,9.676-1.386,2.342-2.95,5.009-1.9,13.382-.089.6-.04.291c-14.63-1.686-22.419,2.868-22.419,2.868l-.139-1.256-.04-.4c-.024-.073-.048-.139-.081-.219-1.362-3.989-3.274-14.769-1-22.1,3.7-12,10.358-10.87,15.392-17.564C911.34,269.225,931.675,276.6,931.675,276.6Z" transform="translate(-875.547 -195.174)" fill="#e33e4e"/>
        <path id="Trazado_59354" data-name="Trazado 59354" d="M901.465,339.626s1.877,4.166,1.3,6.958c-.351,1.686-2.162,3.85-.71,6.551H913.44a5.59,5.59,0,0,0-1.355-5.877c-1.478-1.569-2.568-8.847-2.568-8.847-1.274.2-.946,1.215-.946,1.215s.038-3.432-2.837-2.972a2.833,2.833,0,0,0-2.634,3.581A1.16,1.16,0,0,0,901.465,339.626Z" transform="translate(-870.702 -145.642)" fill="#2c496a"/>
        <path id="Trazado_59355" data-name="Trazado 59355" d="M950.122,353.363H930.968s-.534-4.069.309-5.431c1.216-1.961-2.991-6.305-2.991-6.305s2.554-3.186,4.815-1.378c0,0-.2-3.989,2.634-3.947,0,0,2.634,6.76,5.674,9.175a2.354,2.354,0,0,0,.212.153c2.276,1.638,6.362,2.051,7.967,4.28A4.115,4.115,0,0,1,950.122,353.363Z" transform="translate(-850.988 -145.87)" fill="#2c496a"/>
        <g id="Grupo_29280" data-name="Grupo 29280" transform="translate(21.381 79.042)">
          <path id="Trazado_59356" data-name="Trazado 59356" d="M919.669,305.13l-.179.576c-.243-.073-.477-.137-.713-.21-12.02-3.34-20.295.592-22.6,1.9l-.04-.4c-.024-.073-.048-.139-.081-.219a25.012,25.012,0,0,1,5.917-2.269,83.089,83.089,0,0,1,.017-17.418c1.044-9.314,10.162-14.93,10.261-14.987l.307.527c-.073.04-6.517,4.02-9.053,10.78,8.462-.1,11.826-10.683,11.857-10.789l.585.179c-.033.115-3.558,11.217-12.555,11.217h-.106a15.032,15.032,0,0,0-.7,3.146,82.669,82.669,0,0,0-.024,17.2,33.019,33.019,0,0,1,16.3.534C919.125,304.969,919.4,305.051,919.669,305.13Z" transform="translate(-896.058 -272.102)" fill="#bf2e43"/>
          <path id="Trazado_59357" data-name="Trazado 59357" d="M915.21,275.06c-.009.083-.824,8.377-4.659,14.652l.519.318c3.907-6.4,4.737-14.829,4.745-14.914Z" transform="translate(-885.405 -269.928)" fill="#bf2e43"/>
        </g>
        <path id="Trazado_59358" data-name="Trazado 59358" d="M936.5,274.792s-1.418,6.685-2.938,7.192-.2-3.435-.2-3.435-10.518-4.237-14.833-4.555S920.29,265.469,936.5,274.792Z" transform="translate(-859.152 -194.345)" fill="#2c496a"/>
        <path id="Trazado_59359" data-name="Trazado 59359" d="M936,285.195s-11.09-5.065-18.766-4.66,10.662-25.125,15.221-22.491S938.026,281.953,936,285.195Z" transform="translate(-860.476 -203.534)" fill="#2c496a"/>
        <path id="Trazado_59360" data-name="Trazado 59360" d="M911.42,246.787s1.084-2.786,6.586-3.293,10.346,5.209,9.293,8.582S911.42,246.787,911.42,246.787Z" transform="translate(-863.385 -214.111)" fill="#2c496a"/>
        <path id="Trazado_59361" data-name="Trazado 59361" d="M926.725,235.062s-.383-7.1-7.018-8.21-11.9.507-9.574,10.03.81,13.318-3.545,13.75-4.053-4.667-4.053-4.667a5.726,5.726,0,0,0,3.85,6.418s-5.028.4-3.224,3.546,7.357,2.634,9.544,0c0,0,.163,2.139,2.9,1.374a1.649,1.649,0,0,1-1.01-1.78c.1-1.418,7.622.979,9.985-7.9s-2.358-10.339-2.358-10.339Z" transform="translate(-869.967 -226.546)" fill="#241943"/>
        <path id="Trazado_59362" data-name="Trazado 59362" d="M925.174,247.68c-4.022-.189-4.18,3.822-2.122,7.742s21.756,21.641,24.789,18.3c1.171-1.289-2.205-7.206-2.205-7.206a155.379,155.379,0,0,1-12.909-13.173C929.385,249.548,927.272,247.779,925.174,247.68Z" transform="translate(-855.791 -211.016)" fill="#e89e8e"/>
        <path id="Trazado_59363" data-name="Trazado 59363" d="M941.9,270.8c1.1-5.776-.514-21.162-2.924-27.868l-3.383.821s.177,16.979-1.39,22.412-.562,9.52,2.995,11.092S941.663,272.016,941.9,270.8Z" transform="translate(-847.168 -214.502)" fill="#e89e8e"/>
        <g id="Grupo_29281" data-name="Grupo 29281" transform="translate(84.494 16.058)">
          <path id="Trazado_59364" data-name="Trazado 59364" d="M932.433,244.461c3.671,2.438,2.375,5.943,6.038,6.673a2.307,2.307,0,0,0,1.808-.338,2.73,2.73,0,0,0,1.093-2.695,31.044,31.044,0,0,1-.078-7.2c.208-1.83-.531-1.253-.531-1.253.035-.168.075-.324.115-.482.295-1.2.692-2.037-.206-1.674-1.017.4-2.009,3.765-2.009,3.765.255-5.143,1.506-5.663.553-5.4-1.3.364-2.191,4.775-2.217,4.908-.373-3.094.213-4.7-.581-4.173s-.862,6.067-.855,8.106c0,.46.007.744.007.744C932.711,243.258,932.433,244.461,932.433,244.461Z" transform="translate(-932.433 -235.801)" fill="#e89e8e"/>
          <path id="Trazado_59365" data-name="Trazado 59365" d="M934.236,240.929c0,.46.007.744.007.744a2.984,2.984,0,0,1,2.245,1.945A2.665,2.665,0,0,0,934.236,240.929Z" transform="translate(-931.108 -232.031)" fill="#fd847f"/>
          <path id="Trazado_59366" data-name="Trazado 59366" d="M936.7,241.758c.057-.429.366-2.891.935-3.538.035-.168.075-.324.115-.482C936.789,237.748,936.7,241.227,936.7,241.758Z" transform="translate(-929.3 -234.377)" fill="#fd847f"/>
        </g>
        <path id="Trazado_59367" data-name="Trazado 59367" d="M920.316,248.3s5.469-2.252,12.156,1.742a35.827,35.827,0,0,1,10.688,10.346s.064-11.911,2.084-13.893c0,0,2.5,3,5.6,3.546,0,0,7.968,16.5,2.9,26.765s-20.061,0-20.061,0Z" transform="translate(-856.846 -211.885)" fill="#12214a"/>
        <path id="Trazado_59368" data-name="Trazado 59368" d="M904.348,286.053s4.008-10.535,1.964-16.533c-3.5-10.261-1.586-18.928,2.089-21.49,5.944-4.143,18.383.593,18.383.593s12.109-1.284,13.343,2.393,4.131,18.582-1.64,26.531-13.774,20.236-13.774,20.236S907.591,296.206,904.348,286.053Z" transform="translate(-868.583 -212.004)" fill="#d0d7db"/>
        <path id="Trazado_59369" data-name="Trazado 59369" d="M914.774,276.394s-1.66,5.7-3.788,5.332-11.326-5.306-11.337-6.13,1.306-2.648,1.306-2.648-.507-4.357.607-4.761S914.774,276.394,914.774,276.394Z" transform="translate(-872.036 -195.948)" fill="#2c496a"/>
        <path id="Trazado_59370" data-name="Trazado 59370" d="M919.578,246.617s12.626,21.947,12.017,49.6c0,0,5.741-1.529,6.822-11.862s-2.618-30.131-7.659-35.329C930.759,249.022,927.145,245.25,919.578,246.617Z" transform="translate(-857.388 -212.011)" fill="#172e60"/>
        <path id="Trazado_59371" data-name="Trazado 59371" d="M923.549,246.547s9.427,33.681-8.774,46.751a21.117,21.117,0,0,1-13.11-6.4c-5.47-5.963,1.929-38.024,1.929-38.024S913.337,242.435,923.549,246.547Z" transform="translate(-872.037 -212.852)" fill="#172e60"/>
        <path id="Trazado_59372" data-name="Trazado 59372" d="M916.83,257.861s-.045-10.126-1.19-12.8-4.22,1.232-4.22,1.232S912.263,251,916.83,257.861Z" transform="translate(-863.385 -213.62)" fill="#2c496a"/>
        <path id="Trazado_59373" data-name="Trazado 59373" d="M924.382,256.585s1.162-9.97-2.287-11.722-3.512,4.473-3.512,4.473S921.614,249.027,924.382,256.585Z" transform="translate(-858.12 -213.31)" fill="#2c496a"/>
        <path id="Trazado_59374" data-name="Trazado 59374" d="M916.948,240.159a30.03,30.03,0,0,1-1.732,13.143s3.635,5.366,7.1,1.836a34.684,34.684,0,0,1,4.213-13.443C929.143,236.917,916.948,240.159,916.948,240.159Z" transform="translate(-860.595 -217.329)" fill="#fd847f"/>
        <g id="Grupo_29283" data-name="Grupo 29283" transform="translate(46.326 5.678)">
          <path id="Trazado_59375" data-name="Trazado 59375" d="M914.168,240.1s-3.068-1.94-2.721,1.053c.4,3.468,3.783,4.143,4.143,2.93S914.168,240.1,914.168,240.1Z" transform="translate(-909.71 -222.715)" fill="#e89e8e"/>
          <path id="Trazado_59376" data-name="Trazado 59376" d="M923.189,238.28s1.947-3.062,2.91-.208c1.116,3.307-1.655,5.361-2.5,4.419S923.189,238.28,923.189,238.28Z" transform="translate(-901.141 -224.646)" fill="#e89e8e"/>
          <path id="Trazado_59377" data-name="Trazado 59377" d="M924.705,255.994c-5.563,1.244-9.513-1.685-11.953-12.581-1.26-5.62.829-9.706,7.056-11.1s9.626,1.464,10.884,7.084C933.315,251.1,930.45,254.707,924.705,255.994Z" transform="translate(-908.989 -228.242)" fill="#e89e8e"/>
          <g id="Grupo_29282" data-name="Grupo 29282" transform="translate(6.105 10.767)">
            <path id="Trazado_59378" data-name="Trazado 59378" d="M914.237,237.978a.277.277,0,0,1-.146-.042.283.283,0,0,1-.1-.39,3.805,3.805,0,0,1,2.348-1.518.291.291,0,0,1,.333.226.286.286,0,0,1-.227.333,3.3,3.3,0,0,0-1.966,1.253A.286.286,0,0,1,914.237,237.978Z" transform="translate(-913.953 -236.024)" fill="#263c45"/>
          </g>
          <path id="Trazado_59379" data-name="Trazado 59379" d="M915.332,249.167a34.3,34.3,0,0,1-.947-5.714,8.544,8.544,0,0,1,5.95-8.887,12.022,12.022,0,0,1,4.435-.467,6.9,6.9,0,0,1,5.7,4.133,38.809,38.809,0,0,1,2.479,7.454,18.851,18.851,0,0,0,.064-8.238c-.93-4.993-5-9.147-14.521-7.093C910.354,232.111,906.847,241.906,915.332,249.167Z" transform="translate(-910.435 -229.818)" fill="#241943"/>
          <path id="Trazado_59380" data-name="Trazado 59380" d="M925.94,231.715s-1.034,7.738-11.571,8.712c0,0,6.383-2.25,6.383-6.741,0,0-2.533,5.75-8.611,5.077C912.141,238.763,911.576,229.51,925.94,231.715Z" transform="translate(-909.183 -228.674)" fill="#241943"/>
        </g>
        <path id="Trazado_59381" data-name="Trazado 59381" d="M913.64,248.738c5.134,1.53,8.6,9.834,7.518,10.78s-25.29,5.625-25.29,5.625l14.746,21.272-2.493,3.633s-23-20.331-22.871-27.3S913.64,248.738,913.64,248.738Z" transform="translate(-882.622 -210.233)" fill="#e89e8e"/>
        <path id="Trazado_59382" data-name="Trazado 59382" d="M901.352,270.091a50.422,50.422,0,0,1,5.221.859c2.018.5,4.707,1.01,4.79,1.43s-4.454,0-4.454,0,3.7,1.52,3.782,2.1-4.707-.423-4.707-.423,3.026,1.848,2.858,2.353-3.9-.756-3.9-.756a11.8,11.8,0,0,0,1.412,2.606s-.724.4-2.188-1.23-3.8-1.105-5.654-2.549S899.667,269.875,901.352,270.091Z" transform="translate(-873.298 -194.545)" fill="#e89e8e"/>
        <path id="Trazado_59383" data-name="Trazado 59383" d="M915.292,247.309s9.014,1.036,9.418,14.319-19.738,9.036-19.738,9.036,4.924,5.653,3.4,11.96c0,0-5.479-.042-5.309,2.708,0,0-8.445.524-16.7-10.926S889.728,250.151,915.292,247.309Z" transform="translate(-883.735 -211.284)" fill="#12214a"/>
        <path id="Trazado_59384" data-name="Trazado 59384" d="M930.154,255.9c.6,1.95.132,3.819-1.032,4.173s-2.589-.939-3.182-2.889-.132-3.819,1.032-4.173S929.561,253.945,930.154,255.9Z" transform="translate(-852.903 -207.138)" fill="#2c496a"/>
        <ellipse id="Elipse_2763" data-name="Elipse 2763" cx="4.035" cy="3.354" rx="4.035" ry="3.354" transform="translate(44.505 54.797) rotate(-87.446)" fill="#2c496a"/>
        <path id="Trazado_59385" data-name="Trazado 59385" d="M897.974,255.694c-2.174.488-4.265-.585-4.669-2.391s1.029-3.668,3.2-4.155,4.266.585,4.671,2.393S900.148,255.207,897.974,255.694Z" transform="translate(-876.751 -210.019)" fill="#385e95"/>
        <path id="Trazado_59386" data-name="Trazado 59386" d="M902.062,344.593s3.107-4.032,9.456-.81a2.067,2.067,0,0,1-2.7,2.3C905.844,345.539,904.089,347.7,902.062,344.593Z" transform="translate(-870.263 -141.288)" fill="#385e95"/>
        <path id="Trazado_59387" data-name="Trazado 59387" d="M945.858,345.958c-4.069,1.961-12.5-2.691-12.5-2.691,1.338.227,3.34-.843,4.532-1.589C940.167,343.316,944.253,343.729,945.858,345.958Z" transform="translate(-847.259 -141.918)" fill="#385e95"/>
      </g>
      <g id="Grupo_29288" data-name="Grupo 29288" transform="translate(1101.872 300.709)">
        <g id="Grupo_29285" data-name="Grupo 29285" transform="translate(10.241)">
          <path id="Trazado_59388" data-name="Trazado 59388" d="M992.182,235.419c.3-.972-1.015-1.749-1.811-1.851-.434-.055-1.109.118-1.267.583-.174.51.278.748.67.911l-.323-.2a3.708,3.708,0,0,0,1.053.514c.342.167.691.5,1.09.467a.626.626,0,0,0,.588-.425Z" transform="translate(-989.066 -233.557)" fill="#d14252"/>
        </g>
        <g id="Grupo_29286" data-name="Grupo 29286" transform="translate(2.881 0.296)">
          <path id="Trazado_59389" data-name="Trazado 59389" d="M985.255,235.864c.484.083.8-.165,1.234-.331a3.852,3.852,0,0,0,1.145-.449l-.333.182c.408-.128.859-.352.715-.866a1.237,1.237,0,0,0-1.189-.671c-.828.029-2.2.694-1.98,1.707a.584.584,0,0,0,.408.429Z" transform="translate(-984.824 -233.728)" fill="#d14252"/>
        </g>
        <path id="Trazado_59390" data-name="Trazado 59390" d="M986.248,238.99c.241,1.149,1.447,2.276,3.5,1.334a4.523,4.523,0,0,1-2.025-.154A3.386,3.386,0,0,1,986.248,238.99Z" transform="translate(-980.896 -229.564)" fill="#92445e"/>
        <path id="Trazado_59391" data-name="Trazado 59391" d="M990.126,241.6l-2.64-.086.756-5.676,1.036.034Z" transform="translate(-979.986 -231.885)" fill="#4c3254" style="mix-blend-mode: soft-light;isolation: isolate"/>
        <path id="Trazado_59392" data-name="Trazado 59392" d="M987.927,239.945a2.383,2.383,0,1,0-2.46,2.3A2.383,2.383,0,0,0,987.927,239.945Z" transform="translate(-983.163 -230.67)" fill="#4c3254" opacity="0.75" style="mix-blend-mode: soft-light;isolation: isolate"/>
        <path id="Trazado_59393" data-name="Trazado 59393" d="M992.456,237.629a2.319,2.319,0,0,0-.465,0,2.383,2.383,0,1,0,.486,4.74,2.356,2.356,0,0,0,.97-.326,13.886,13.886,0,0,0-.352-1.834C992.907,239.491,992.686,238.594,992.456,237.629Z" transform="translate(-978.248 -230.573)" fill="#4c3254" opacity="0.75" style="mix-blend-mode: soft-light;isolation: isolate"/>
        <g id="Grupo_29287" data-name="Grupo 29287" transform="translate(4.661 5.205)">
          <path id="Trazado_59394" data-name="Trazado 59394" d="M989.526,237.344c-.012.387.12.7.3.71s.328-.3.342-.689-.118-.7-.295-.71S989.54,236.959,989.526,237.344Z" transform="translate(-983.147 -236.485)" fill="#92445e"/>
          <path id="Trazado_59395" data-name="Trazado 59395" d="M985.85,237.246c-.012.387.12.7.3.71s.328-.3.342-.691-.12-.7-.295-.708S985.864,236.861,985.85,237.246Z" transform="translate(-985.85 -236.557)" fill="#92445e"/>
        </g>
      </g>
      <g id="Grupo_29292" data-name="Grupo 29292" transform="translate(1049.402 299.282)">
        <g id="Grupo_29289" data-name="Grupo 29289" transform="translate(11.848 0.578)">
          <path id="Trazado_59396" data-name="Trazado 59396" d="M962.867,234.928c.3-.97-1.015-1.749-1.811-1.85-.434-.057-1.109.116-1.267.583-.174.508.278.746.67.911l-.323-.2a3.668,3.668,0,0,0,1.053.515c.342.165.691.5,1.09.465a.622.622,0,0,0,.588-.425Z" transform="translate(-959.751 -233.068)" fill="#f2ce93"/>
        </g>
        <g id="Grupo_29290" data-name="Grupo 29290" transform="translate(2.881)">
          <path id="Trazado_59397" data-name="Trazado 59397" d="M955.013,234.871c.486.083.8-.165,1.234-.331a3.853,3.853,0,0,0,1.145-.449l-.331.184c.406-.13.857-.354.713-.868a1.236,1.236,0,0,0-1.188-.671c-.828.03-2.2.694-1.98,1.709a.584.584,0,0,0,.408.427Z" transform="translate(-954.583 -232.735)" fill="#f2ce93"/>
        </g>
        <path id="Trazado_59398" data-name="Trazado 59398" d="M956.438,238.864c.456,1.081,1.857,1.957,3.691.637a4.509,4.509,0,0,1-2.018.238A3.387,3.387,0,0,1,956.438,238.864Z" transform="translate(-950.338 -228.229)" fill="#92445e"/>
        <path id="Trazado_59399" data-name="Trazado 59399" d="M959.36,240.872l-2.612-.4,1.422-5.547,1.024.156Z" transform="translate(-950.11 -231.123)" fill="#4c3254" style="mix-blend-mode: soft-light;isolation: isolate"/>
        <path id="Trazado_59400" data-name="Trazado 59400" d="M957.686,238.954a2.383,2.383,0,1,0-2.459,2.3A2.383,2.383,0,0,0,957.686,238.954Z" transform="translate(-952.922 -229.973)" fill="#4c3254" opacity="0.75" style="mix-blend-mode: soft-light;isolation: isolate"/>
        <path id="Trazado_59401" data-name="Trazado 59401" d="M964.052,239.788a2.383,2.383,0,1,0-2.458,2.3A2.383,2.383,0,0,0,964.052,239.788Z" transform="translate(-948.243 -229.359)" fill="#4c3254" opacity="0.75" style="mix-blend-mode: soft-light;isolation: isolate"/>
        <g id="Grupo_29291" data-name="Grupo 29291" transform="translate(4.662 4.909)">
          <path id="Trazado_59402" data-name="Trazado 59402" d="M959.286,236.353c-.014.385.118.7.293.708s.328-.3.342-.689-.118-.7-.293-.71S959.3,235.966,959.286,236.353Z" transform="translate(-952.907 -235.492)" fill="#92445e"/>
          <path id="Trazado_59403" data-name="Trazado 59403" d="M955.61,236.255c-.014.385.118.7.293.708s.328-.3.342-.689-.118-.7-.293-.71S955.623,235.868,955.61,236.255Z" transform="translate(-955.609 -235.564)" fill="#92445e"/>
        </g>
      </g>
      <g id="Grupo_29296" data-name="Grupo 29296" transform="translate(1132.319 271.016)">
        <g id="Grupo_29293" data-name="Grupo 29293" transform="translate(8.216)">
          <path id="Trazado_59404" data-name="Trazado 59404" d="M1008.777,217.506c-.109-1.01-1.626-1.2-2.4-.98-.422.121-.972.547-.932,1.038.044.536.55.576.975.571l-.375-.055a3.688,3.688,0,0,0,1.171.055c.38.017.831.184,1.185,0a.629.629,0,0,0,.371-.625Z" transform="translate(-1005.447 -216.443)" fill="#f2ce93"/>
        </g>
        <g id="Grupo_29294" data-name="Grupo 29294" transform="translate(0 2.689)">
          <path id="Trazado_59405" data-name="Trazado 59405" d="M1001.441,220.71c.477-.115.666-.468,1-.793.312-.3.652-.47.873-.866l-.232.3c.321-.279.647-.665.311-1.077a1.232,1.232,0,0,0-1.357-.146c-.748.356-1.74,1.508-1.14,2.353a.582.582,0,0,0,.545.231Z" transform="translate(-1000.712 -217.993)" fill="#f2ce93"/>
        </g>
        <path id="Trazado_59406" data-name="Trazado 59406" d="M1004.549,223.789c.847.812,2.479,1.062,3.64-.876a4.54,4.54,0,0,1-1.758,1.017A3.386,3.386,0,0,1,1004.549,223.789Z" transform="translate(-997.891 -211.688)" fill="#92445e"/>
        <path id="Trazado_59407" data-name="Trazado 59407" d="M1007.475,224.453l-2.555.67-.894-5.656,1-.263Z" transform="translate(-998.276 -214.414)" fill="#4c3254" style="mix-blend-mode: soft-light;isolation: isolate"/>
        <path id="Trazado_59408" data-name="Trazado 59408" d="M1005.413,223.487a2.383,2.383,0,1,0-1.345,3.09A2.383,2.383,0,0,0,1005.413,223.487Z" transform="translate(-1000.637 -212.375)" fill="#4c3254" opacity="0.75" style="mix-blend-mode: soft-light;isolation: isolate"/>
        <path id="Trazado_59409" data-name="Trazado 59409" d="M1011.588,221.73a2.383,2.383,0,1,0-1.345,3.09A2.385,2.385,0,0,0,1011.588,221.73Z" transform="translate(-996.098 -213.668)" fill="#4c3254" opacity="0.75" style="mix-blend-mode: soft-light;isolation: isolate"/>
        <g id="Grupo_29295" data-name="Grupo 29295" transform="translate(3.246 4.897)">
          <path id="Trazado_59410" data-name="Trazado 59410" d="M1006.091,220.045c.142.359.389.6.552.534s.181-.409.04-.769-.387-.6-.552-.534S1005.951,219.684,1006.091,220.045Z" transform="translate(-1000.073 -219.266)" fill="#92445e"/>
          <path id="Trazado_59411" data-name="Trazado 59411" d="M1002.679,221.412c.141.361.387.6.55.536s.182-.409.04-.77-.387-.6-.55-.534S1002.536,221.053,1002.679,221.412Z" transform="translate(-1002.583 -218.261)" fill="#92445e"/>
        </g>
      </g>
      <g id="Grupo_29300" data-name="Grupo 29300" transform="translate(928.56 281.508)">
        <g id="Grupo_29297" data-name="Grupo 29297" transform="translate(11.848 0.579)">
          <path id="Trazado_59412" data-name="Trazado 59412" d="M893.217,224.686c.3-.972-1.013-1.749-1.81-1.851-.434-.056-1.109.118-1.267.583-.173.51.278.748.67.911l-.323-.2a3.669,3.669,0,0,0,1.053.515c.342.167.691.5,1.088.467a.625.625,0,0,0,.588-.425Z" transform="translate(-890.103 -222.824)" fill="#d14252"/>
        </g>
        <g id="Grupo_29298" data-name="Grupo 29298" transform="translate(2.881)">
          <path id="Trazado_59413" data-name="Trazado 59413" d="M885.365,224.629c.484.083.8-.167,1.234-.331a3.9,3.9,0,0,0,1.145-.449l-.333.182c.408-.13.859-.354.713-.868a1.232,1.232,0,0,0-1.187-.671c-.828.03-2.2.694-1.98,1.709a.587.587,0,0,0,.408.429Z" transform="translate(-884.935 -222.491)" fill="#d14252"/>
        </g>
        <path id="Trazado_59414" data-name="Trazado 59414" d="M886.789,228.62c.456,1.081,1.857,1.957,3.69.639a4.527,4.527,0,0,1-2.016.238A3.392,3.392,0,0,1,886.789,228.62Z" transform="translate(-880.691 -217.985)" fill="#92445e"/>
        <path id="Trazado_59415" data-name="Trazado 59415" d="M889.712,230.628l-2.612-.4,1.422-5.547,1.024.156Z" transform="translate(-880.462 -220.879)" fill="#4c3254" style="mix-blend-mode: soft-light;isolation: isolate"/>
        <path id="Trazado_59416" data-name="Trazado 59416" d="M888.038,228.71a2.383,2.383,0,1,0-2.46,2.3A2.384,2.384,0,0,0,888.038,228.71Z" transform="translate(-883.274 -219.728)" fill="#4c3254" opacity="0.75" style="mix-blend-mode: soft-light;isolation: isolate"/>
        <path id="Trazado_59417" data-name="Trazado 59417" d="M894.4,229.543a2.383,2.383,0,1,0-2.46,2.3A2.383,2.383,0,0,0,894.4,229.543Z" transform="translate(-878.595 -219.115)" fill="#4c3254" opacity="0.75" style="mix-blend-mode: soft-light;isolation: isolate"/>
        <g id="Grupo_29299" data-name="Grupo 29299" transform="translate(4.661 4.909)">
          <path id="Trazado_59418" data-name="Trazado 59418" d="M889.637,226.109c-.012.387.12.7.295.71s.328-.3.342-.691-.118-.7-.295-.71S889.651,225.722,889.637,226.109Z" transform="translate(-883.259 -225.248)" fill="#92445e"/>
          <path id="Trazado_59419" data-name="Trazado 59419" d="M885.961,226.011c-.012.387.12.7.295.71s.328-.3.342-.691-.12-.7-.295-.71S885.975,225.624,885.961,226.011Z" transform="translate(-885.961 -225.32)" fill="#92445e"/>
        </g>
      </g>
      <g id="Grupo_29304" data-name="Grupo 29304" transform="translate(982.317 303.697)">
        <g id="Grupo_29301" data-name="Grupo 29301" transform="translate(8.105)">
          <path id="Trazado_59420" data-name="Trazado 59420" d="M922.257,236.29c-.139-1.006-1.66-1.152-2.426-.907-.416.134-.954.578-.9,1.067.059.534.567.557.992.54l-.376-.043a3.645,3.645,0,0,0,1.173.019c.38.005.836.16,1.183-.04a.624.624,0,0,0,.352-.635Z" transform="translate(-918.929 -235.279)" fill="#241943"/>
        </g>
        <g id="Grupo_29302" data-name="Grupo 29302" transform="translate(0 2.929)">
          <path id="Trazado_59421" data-name="Trazado 59421" d="M915.013,239.722c.474-.13.651-.489.975-.824.3-.312.638-.489.847-.892l-.224.305c.314-.29.626-.684.277-1.088a1.236,1.236,0,0,0-1.36-.1c-.737.378-1.7,1.562-1.067,2.387a.583.583,0,0,0,.552.215Z" transform="translate(-914.258 -236.967)" fill="#241943"/>
        </g>
        <path id="Trazado_59422" data-name="Trazado 59422" d="M918.225,242.727c.873.784,2.512.984,3.612-.989a4.506,4.506,0,0,1-1.725,1.071A3.394,3.394,0,0,1,918.225,242.727Z" transform="translate(-911.341 -230.532)" fill="#92445e"/>
        <path id="Trazado_59423" data-name="Trazado 59423" d="M921.178,243.265l-2.534.748-1.067-5.626.994-.293Z" transform="translate(-911.817 -233.21)" fill="#4c3254" style="mix-blend-mode: soft-light;isolation: isolate"/>
        <path id="Trazado_59424" data-name="Trazado 59424" d="M919.061,242.382a2.383,2.383,0,1,0-1.249,3.13A2.383,2.383,0,0,0,919.061,242.382Z" transform="translate(-914.088 -231.119)" fill="#4c3254" opacity="0.75" style="mix-blend-mode: soft-light;isolation: isolate"/>
        <path id="Trazado_59425" data-name="Trazado 59425" d="M925.18,240.436a2.383,2.383,0,1,0-1.251,3.13A2.384,2.384,0,0,0,925.18,240.436Z" transform="translate(-909.59 -232.549)" fill="#4c3254" opacity="0.75" style="mix-blend-mode: soft-light;isolation: isolate"/>
        <g id="Grupo_29303" data-name="Grupo 29303" transform="translate(3.337 4.91)">
          <path id="Trazado_59426" data-name="Trazado 59426" d="M919.66,238.892c.153.356.406.586.567.517s.168-.415.017-.77-.406-.586-.567-.517S919.509,238.536,919.66,238.892Z" transform="translate(-913.704 -238.109)" fill="#92445e"/>
          <path id="Trazado_59427" data-name="Trazado 59427" d="M916.29,240.363c.153.356.406.586.567.517s.168-.415.016-.769-.4-.588-.566-.519S916.138,240.007,916.29,240.363Z" transform="translate(-916.181 -237.028)" fill="#92445e"/>
        </g>
      </g>
      <path id="Trazado_59428" data-name="Trazado 59428" d="M992.223,310c.335,3.234,2.075,5.7,3.886,5.517s3.009-2.962,2.672-6.2-2.073-5.7-3.885-5.517S991.888,306.765,992.223,310Z" transform="translate(125.327 118.779)" fill="#4c3254" opacity="0.75" style="mix-blend-mode: soft-light;isolation: isolate"/>
      <path id="Trazado_59429" data-name="Trazado 59429" d="M1027.257,306.618c.335,3.234,2.075,5.7,3.886,5.517s3.007-2.962,2.672-6.2-2.073-5.7-3.885-5.517S1026.922,303.384,1027.257,306.618Z" transform="translate(151.078 116.294)" fill="#4c3254" opacity="0.75" style="mix-blend-mode: soft-light;isolation: isolate"/>
      <path id="Trazado_59430" data-name="Trazado 59430" d="M975.588,309.044c-.253,3.241,1.012,5.984,2.828,6.126s3.493-2.372,3.746-5.613-1.013-5.984-2.83-6.126S975.841,305.8,975.588,309.044Z" transform="translate(113.117 118.509)" fill="#4c3254" opacity="0.75" style="mix-blend-mode: soft-light;isolation: isolate"/>
      <path id="Trazado_59431" data-name="Trazado 59431" d="M916.752,310.3c.658,3.184,2.637,5.467,4.419,5.1s2.7-3.25,2.039-6.434-2.635-5.467-4.419-5.1S916.095,307.115,916.752,310.3Z" transform="translate(69.737 118.805)" fill="#4c3254" opacity="0.75" style="mix-blend-mode: soft-light;isolation: isolate"/>
      <path id="Trazado_59432" data-name="Trazado 59432" d="M899.621,311.053c-.43,3.222.685,6.031,2.49,6.27s3.616-2.177,4.046-5.4-.685-6.031-2.49-6.272S900.05,307.829,899.621,311.053Z" transform="translate(57.233 120.133)" fill="#4c3254" opacity="0.75" style="mix-blend-mode: soft-light;isolation: isolate"/>
      <path id="Trazado_59433" data-name="Trazado 59433" d="M860.644,311.906c.737,3.166,2.773,5.4,4.546,4.987s2.615-3.314,1.877-6.482-2.773-5.4-4.546-4.987S859.908,308.739,860.644,311.906Z" transform="translate(28.455 119.941)" fill="#c5dbee" opacity="0.3"/>
      <path id="Trazado_59434" data-name="Trazado 59434" d="M884.77,315.068c.737,3.167,2.773,5.4,4.546,4.987s2.613-3.314,1.877-6.482-2.773-5.4-4.546-4.987S884.033,311.9,884.77,315.068Z" transform="translate(46.188 122.266)" fill="#c5dbee" opacity="0.3"/>
    </g>
  </g>
</svg>
